%TF.GenerationSoftware,KiCad,Pcbnew,7.0.2-0*%
%TF.CreationDate,2024-09-16T14:38:38-04:00*%
%TF.ProjectId,ArduinoSolderChallenge,41726475-696e-46f5-936f-6c6465724368,rev?*%
%TF.SameCoordinates,Original*%
%TF.FileFunction,Drillmap*%
%TF.FilePolarity,Positive*%
%FSLAX45Y45*%
G04 Gerber Fmt 4.5, Leading zero omitted, Abs format (unit mm)*
G04 Created by KiCad (PCBNEW 7.0.2-0) date 2024-09-16 14:38:38*
%MOMM*%
%LPD*%
G01*
G04 APERTURE LIST*
%ADD10C,0.100000*%
%ADD11C,0.200000*%
%ADD12C,0.040000*%
%ADD13C,0.076200*%
%ADD14C,0.218000*%
G04 APERTURE END LIST*
D10*
X4205000Y-1910000D02*
X8505000Y-1910000D01*
X8505000Y-8110000D01*
X4205000Y-8110000D01*
X4205000Y-1910000D01*
D11*
D12*
X5510000Y-3955000D02*
X5550000Y-3995000D01*
X5550000Y-3955000D02*
X5510000Y-3995000D01*
D13*
X6718100Y-4406000D02*
G75*
G03*
X6718100Y-4406000I-38100J0D01*
G01*
X6718100Y-4721000D02*
G75*
G03*
X6718100Y-4721000I-38100J0D01*
G01*
X6718100Y-5036000D02*
G75*
G03*
X6718100Y-5036000I-38100J0D01*
G01*
X6718100Y-5351000D02*
G75*
G03*
X6718100Y-5351000I-38100J0D01*
G01*
X6718100Y-5666000D02*
G75*
G03*
X6718100Y-5666000I-38100J0D01*
G01*
X6762100Y-2545000D02*
G75*
G03*
X6762100Y-2545000I-38100J0D01*
G01*
X6764100Y-2230000D02*
G75*
G03*
X6764100Y-2230000I-38100J0D01*
G01*
X6764100Y-2860000D02*
G75*
G03*
X6764100Y-2860000I-38100J0D01*
G01*
X6972100Y-4406000D02*
G75*
G03*
X6972100Y-4406000I-38100J0D01*
G01*
X6972100Y-4721000D02*
G75*
G03*
X6972100Y-4721000I-38100J0D01*
G01*
X6972100Y-5036000D02*
G75*
G03*
X6972100Y-5036000I-38100J0D01*
G01*
X6972100Y-5351000D02*
G75*
G03*
X6972100Y-5351000I-38100J0D01*
G01*
X6972100Y-5666000D02*
G75*
G03*
X6972100Y-5666000I-38100J0D01*
G01*
X7410100Y-4426000D02*
G75*
G03*
X7410100Y-4426000I-38100J0D01*
G01*
X7410100Y-4731000D02*
G75*
G03*
X7410100Y-4731000I-38100J0D01*
G01*
X7410100Y-5036000D02*
G75*
G03*
X7410100Y-5036000I-38100J0D01*
G01*
X7410100Y-5351000D02*
G75*
G03*
X7410100Y-5351000I-38100J0D01*
G01*
X7410100Y-5666000D02*
G75*
G03*
X7410100Y-5666000I-38100J0D01*
G01*
X7524100Y-2545000D02*
G75*
G03*
X7524100Y-2545000I-38100J0D01*
G01*
X7526100Y-2230000D02*
G75*
G03*
X7526100Y-2230000I-38100J0D01*
G01*
X7526100Y-2860000D02*
G75*
G03*
X7526100Y-2860000I-38100J0D01*
G01*
X8172100Y-4426000D02*
G75*
G03*
X8172100Y-4426000I-38100J0D01*
G01*
X8172100Y-4731000D02*
G75*
G03*
X8172100Y-4731000I-38100J0D01*
G01*
X8172100Y-5036000D02*
G75*
G03*
X8172100Y-5036000I-38100J0D01*
G01*
X8172100Y-5351000D02*
G75*
G03*
X8172100Y-5351000I-38100J0D01*
G01*
X8172100Y-5666000D02*
G75*
G03*
X8172100Y-5666000I-38100J0D01*
G01*
D10*
X4406000Y-2593000D02*
X4406000Y-2693000D01*
X4356000Y-2643000D02*
X4456000Y-2643000D01*
X4406000Y-2847000D02*
X4406000Y-2947000D01*
X4356000Y-2897000D02*
X4456000Y-2897000D01*
X4406000Y-3101000D02*
X4406000Y-3201000D01*
X4356000Y-3151000D02*
X4456000Y-3151000D01*
X4406000Y-3355000D02*
X4406000Y-3455000D01*
X4356000Y-3405000D02*
X4456000Y-3405000D01*
X4406000Y-3609000D02*
X4406000Y-3709000D01*
X4356000Y-3659000D02*
X4456000Y-3659000D01*
X4406000Y-3863000D02*
X4406000Y-3963000D01*
X4356000Y-3913000D02*
X4456000Y-3913000D01*
X4406000Y-4117000D02*
X4406000Y-4217000D01*
X4356000Y-4167000D02*
X4456000Y-4167000D01*
X4406000Y-4371000D02*
X4406000Y-4471000D01*
X4356000Y-4421000D02*
X4456000Y-4421000D01*
X4406000Y-4625000D02*
X4406000Y-4725000D01*
X4356000Y-4675000D02*
X4456000Y-4675000D01*
X4406000Y-4879000D02*
X4406000Y-4979000D01*
X4356000Y-4929000D02*
X4456000Y-4929000D01*
X4406000Y-5133000D02*
X4406000Y-5233000D01*
X4356000Y-5183000D02*
X4456000Y-5183000D01*
X4406000Y-5387000D02*
X4406000Y-5487000D01*
X4356000Y-5437000D02*
X4456000Y-5437000D01*
X4406000Y-5641000D02*
X4406000Y-5741000D01*
X4356000Y-5691000D02*
X4456000Y-5691000D01*
X4406000Y-5895000D02*
X4406000Y-5995000D01*
X4356000Y-5945000D02*
X4456000Y-5945000D01*
X4406000Y-6149000D02*
X4406000Y-6249000D01*
X4356000Y-6199000D02*
X4456000Y-6199000D01*
X5930000Y-2593000D02*
X5930000Y-2693000D01*
X5880000Y-2643000D02*
X5980000Y-2643000D01*
X5930000Y-2847000D02*
X5930000Y-2947000D01*
X5880000Y-2897000D02*
X5980000Y-2897000D01*
X5930000Y-3101000D02*
X5930000Y-3201000D01*
X5880000Y-3151000D02*
X5980000Y-3151000D01*
X5930000Y-3355000D02*
X5930000Y-3455000D01*
X5880000Y-3405000D02*
X5980000Y-3405000D01*
X5930000Y-3609000D02*
X5930000Y-3709000D01*
X5880000Y-3659000D02*
X5980000Y-3659000D01*
X5930000Y-3863000D02*
X5930000Y-3963000D01*
X5880000Y-3913000D02*
X5980000Y-3913000D01*
X5930000Y-4117000D02*
X5930000Y-4217000D01*
X5880000Y-4167000D02*
X5980000Y-4167000D01*
X5930000Y-4371000D02*
X5930000Y-4471000D01*
X5880000Y-4421000D02*
X5980000Y-4421000D01*
X5930000Y-4625000D02*
X5930000Y-4725000D01*
X5880000Y-4675000D02*
X5980000Y-4675000D01*
X5930000Y-4879000D02*
X5930000Y-4979000D01*
X5880000Y-4929000D02*
X5980000Y-4929000D01*
X5930000Y-5133000D02*
X5930000Y-5233000D01*
X5880000Y-5183000D02*
X5980000Y-5183000D01*
X5930000Y-5387000D02*
X5930000Y-5487000D01*
X5880000Y-5437000D02*
X5980000Y-5437000D01*
X5930000Y-5641000D02*
X5930000Y-5741000D01*
X5880000Y-5691000D02*
X5980000Y-5691000D01*
X5930000Y-5895000D02*
X5930000Y-5995000D01*
X5880000Y-5945000D02*
X5980000Y-5945000D01*
X5930000Y-6149000D02*
X5930000Y-6249000D01*
X5880000Y-6199000D02*
X5980000Y-6199000D01*
D14*
X5032075Y-7452075D02*
X5032075Y-7297925D01*
X4877925Y-7297925D01*
X4877925Y-7452075D01*
X5032075Y-7452075D01*
X6302075Y-7452075D02*
X6302075Y-7297925D01*
X6147925Y-7297925D01*
X6147925Y-7452075D01*
X6302075Y-7452075D01*
D11*
X4447619Y-8427524D02*
X4447619Y-8227524D01*
X4447619Y-8227524D02*
X4495238Y-8227524D01*
X4495238Y-8227524D02*
X4523810Y-8237048D01*
X4523810Y-8237048D02*
X4542857Y-8256095D01*
X4542857Y-8256095D02*
X4552381Y-8275143D01*
X4552381Y-8275143D02*
X4561905Y-8313238D01*
X4561905Y-8313238D02*
X4561905Y-8341809D01*
X4561905Y-8341809D02*
X4552381Y-8379905D01*
X4552381Y-8379905D02*
X4542857Y-8398952D01*
X4542857Y-8398952D02*
X4523810Y-8418000D01*
X4523810Y-8418000D02*
X4495238Y-8427524D01*
X4495238Y-8427524D02*
X4447619Y-8427524D01*
X4647619Y-8427524D02*
X4647619Y-8294190D01*
X4647619Y-8332286D02*
X4657143Y-8313238D01*
X4657143Y-8313238D02*
X4666667Y-8303714D01*
X4666667Y-8303714D02*
X4685714Y-8294190D01*
X4685714Y-8294190D02*
X4704762Y-8294190D01*
X4771429Y-8427524D02*
X4771429Y-8294190D01*
X4771429Y-8227524D02*
X4761905Y-8237048D01*
X4761905Y-8237048D02*
X4771429Y-8246571D01*
X4771429Y-8246571D02*
X4780952Y-8237048D01*
X4780952Y-8237048D02*
X4771429Y-8227524D01*
X4771429Y-8227524D02*
X4771429Y-8246571D01*
X4895238Y-8427524D02*
X4876190Y-8418000D01*
X4876190Y-8418000D02*
X4866667Y-8398952D01*
X4866667Y-8398952D02*
X4866667Y-8227524D01*
X5000000Y-8427524D02*
X4980952Y-8418000D01*
X4980952Y-8418000D02*
X4971429Y-8398952D01*
X4971429Y-8398952D02*
X4971429Y-8227524D01*
X5228571Y-8427524D02*
X5228571Y-8227524D01*
X5228571Y-8227524D02*
X5295238Y-8370381D01*
X5295238Y-8370381D02*
X5361905Y-8227524D01*
X5361905Y-8227524D02*
X5361905Y-8427524D01*
X5542857Y-8427524D02*
X5542857Y-8322762D01*
X5542857Y-8322762D02*
X5533333Y-8303714D01*
X5533333Y-8303714D02*
X5514286Y-8294190D01*
X5514286Y-8294190D02*
X5476190Y-8294190D01*
X5476190Y-8294190D02*
X5457143Y-8303714D01*
X5542857Y-8418000D02*
X5523810Y-8427524D01*
X5523810Y-8427524D02*
X5476190Y-8427524D01*
X5476190Y-8427524D02*
X5457143Y-8418000D01*
X5457143Y-8418000D02*
X5447619Y-8398952D01*
X5447619Y-8398952D02*
X5447619Y-8379905D01*
X5447619Y-8379905D02*
X5457143Y-8360857D01*
X5457143Y-8360857D02*
X5476190Y-8351333D01*
X5476190Y-8351333D02*
X5523810Y-8351333D01*
X5523810Y-8351333D02*
X5542857Y-8341809D01*
X5638095Y-8294190D02*
X5638095Y-8494190D01*
X5638095Y-8303714D02*
X5657143Y-8294190D01*
X5657143Y-8294190D02*
X5695238Y-8294190D01*
X5695238Y-8294190D02*
X5714286Y-8303714D01*
X5714286Y-8303714D02*
X5723809Y-8313238D01*
X5723809Y-8313238D02*
X5733333Y-8332286D01*
X5733333Y-8332286D02*
X5733333Y-8389429D01*
X5733333Y-8389429D02*
X5723809Y-8408476D01*
X5723809Y-8408476D02*
X5714286Y-8418000D01*
X5714286Y-8418000D02*
X5695238Y-8427524D01*
X5695238Y-8427524D02*
X5657143Y-8427524D01*
X5657143Y-8427524D02*
X5638095Y-8418000D01*
X5819048Y-8408476D02*
X5828571Y-8418000D01*
X5828571Y-8418000D02*
X5819048Y-8427524D01*
X5819048Y-8427524D02*
X5809524Y-8418000D01*
X5809524Y-8418000D02*
X5819048Y-8408476D01*
X5819048Y-8408476D02*
X5819048Y-8427524D01*
X5819048Y-8303714D02*
X5828571Y-8313238D01*
X5828571Y-8313238D02*
X5819048Y-8322762D01*
X5819048Y-8322762D02*
X5809524Y-8313238D01*
X5809524Y-8313238D02*
X5819048Y-8303714D01*
X5819048Y-8303714D02*
X5819048Y-8322762D01*
D12*
X4160000Y-8735000D02*
X4200000Y-8775000D01*
X4200000Y-8735000D02*
X4160000Y-8775000D01*
D11*
X4485714Y-8647524D02*
X4504762Y-8647524D01*
X4504762Y-8647524D02*
X4523810Y-8657048D01*
X4523810Y-8657048D02*
X4533333Y-8666571D01*
X4533333Y-8666571D02*
X4542857Y-8685619D01*
X4542857Y-8685619D02*
X4552381Y-8723714D01*
X4552381Y-8723714D02*
X4552381Y-8771333D01*
X4552381Y-8771333D02*
X4542857Y-8809429D01*
X4542857Y-8809429D02*
X4533333Y-8828476D01*
X4533333Y-8828476D02*
X4523810Y-8838000D01*
X4523810Y-8838000D02*
X4504762Y-8847524D01*
X4504762Y-8847524D02*
X4485714Y-8847524D01*
X4485714Y-8847524D02*
X4466667Y-8838000D01*
X4466667Y-8838000D02*
X4457143Y-8828476D01*
X4457143Y-8828476D02*
X4447619Y-8809429D01*
X4447619Y-8809429D02*
X4438095Y-8771333D01*
X4438095Y-8771333D02*
X4438095Y-8723714D01*
X4438095Y-8723714D02*
X4447619Y-8685619D01*
X4447619Y-8685619D02*
X4457143Y-8666571D01*
X4457143Y-8666571D02*
X4466667Y-8657048D01*
X4466667Y-8657048D02*
X4485714Y-8647524D01*
X4638095Y-8828476D02*
X4647619Y-8838000D01*
X4647619Y-8838000D02*
X4638095Y-8847524D01*
X4638095Y-8847524D02*
X4628571Y-8838000D01*
X4628571Y-8838000D02*
X4638095Y-8828476D01*
X4638095Y-8828476D02*
X4638095Y-8847524D01*
X4819048Y-8714190D02*
X4819048Y-8847524D01*
X4771429Y-8638000D02*
X4723810Y-8780857D01*
X4723810Y-8780857D02*
X4847619Y-8780857D01*
X4961905Y-8647524D02*
X4980952Y-8647524D01*
X4980952Y-8647524D02*
X5000000Y-8657048D01*
X5000000Y-8657048D02*
X5009524Y-8666571D01*
X5009524Y-8666571D02*
X5019048Y-8685619D01*
X5019048Y-8685619D02*
X5028571Y-8723714D01*
X5028571Y-8723714D02*
X5028571Y-8771333D01*
X5028571Y-8771333D02*
X5019048Y-8809429D01*
X5019048Y-8809429D02*
X5009524Y-8828476D01*
X5009524Y-8828476D02*
X5000000Y-8838000D01*
X5000000Y-8838000D02*
X4980952Y-8847524D01*
X4980952Y-8847524D02*
X4961905Y-8847524D01*
X4961905Y-8847524D02*
X4942857Y-8838000D01*
X4942857Y-8838000D02*
X4933333Y-8828476D01*
X4933333Y-8828476D02*
X4923810Y-8809429D01*
X4923810Y-8809429D02*
X4914286Y-8771333D01*
X4914286Y-8771333D02*
X4914286Y-8723714D01*
X4914286Y-8723714D02*
X4923810Y-8685619D01*
X4923810Y-8685619D02*
X4933333Y-8666571D01*
X4933333Y-8666571D02*
X4942857Y-8657048D01*
X4942857Y-8657048D02*
X4961905Y-8647524D01*
X5152381Y-8647524D02*
X5171429Y-8647524D01*
X5171429Y-8647524D02*
X5190476Y-8657048D01*
X5190476Y-8657048D02*
X5200000Y-8666571D01*
X5200000Y-8666571D02*
X5209524Y-8685619D01*
X5209524Y-8685619D02*
X5219048Y-8723714D01*
X5219048Y-8723714D02*
X5219048Y-8771333D01*
X5219048Y-8771333D02*
X5209524Y-8809429D01*
X5209524Y-8809429D02*
X5200000Y-8828476D01*
X5200000Y-8828476D02*
X5190476Y-8838000D01*
X5190476Y-8838000D02*
X5171429Y-8847524D01*
X5171429Y-8847524D02*
X5152381Y-8847524D01*
X5152381Y-8847524D02*
X5133333Y-8838000D01*
X5133333Y-8838000D02*
X5123810Y-8828476D01*
X5123810Y-8828476D02*
X5114286Y-8809429D01*
X5114286Y-8809429D02*
X5104762Y-8771333D01*
X5104762Y-8771333D02*
X5104762Y-8723714D01*
X5104762Y-8723714D02*
X5114286Y-8685619D01*
X5114286Y-8685619D02*
X5123810Y-8666571D01*
X5123810Y-8666571D02*
X5133333Y-8657048D01*
X5133333Y-8657048D02*
X5152381Y-8647524D01*
X5304762Y-8847524D02*
X5304762Y-8714190D01*
X5304762Y-8733238D02*
X5314286Y-8723714D01*
X5314286Y-8723714D02*
X5333333Y-8714190D01*
X5333333Y-8714190D02*
X5361905Y-8714190D01*
X5361905Y-8714190D02*
X5380952Y-8723714D01*
X5380952Y-8723714D02*
X5390476Y-8742762D01*
X5390476Y-8742762D02*
X5390476Y-8847524D01*
X5390476Y-8742762D02*
X5400000Y-8723714D01*
X5400000Y-8723714D02*
X5419048Y-8714190D01*
X5419048Y-8714190D02*
X5447619Y-8714190D01*
X5447619Y-8714190D02*
X5466667Y-8723714D01*
X5466667Y-8723714D02*
X5476191Y-8742762D01*
X5476191Y-8742762D02*
X5476191Y-8847524D01*
X5571429Y-8847524D02*
X5571429Y-8714190D01*
X5571429Y-8733238D02*
X5580952Y-8723714D01*
X5580952Y-8723714D02*
X5600000Y-8714190D01*
X5600000Y-8714190D02*
X5628571Y-8714190D01*
X5628571Y-8714190D02*
X5647619Y-8723714D01*
X5647619Y-8723714D02*
X5657143Y-8742762D01*
X5657143Y-8742762D02*
X5657143Y-8847524D01*
X5657143Y-8742762D02*
X5666667Y-8723714D01*
X5666667Y-8723714D02*
X5685714Y-8714190D01*
X5685714Y-8714190D02*
X5714286Y-8714190D01*
X5714286Y-8714190D02*
X5733333Y-8723714D01*
X5733333Y-8723714D02*
X5742857Y-8742762D01*
X5742857Y-8742762D02*
X5742857Y-8847524D01*
X6133333Y-8638000D02*
X5961905Y-8895143D01*
X6390476Y-8647524D02*
X6409524Y-8647524D01*
X6409524Y-8647524D02*
X6428572Y-8657048D01*
X6428572Y-8657048D02*
X6438095Y-8666571D01*
X6438095Y-8666571D02*
X6447619Y-8685619D01*
X6447619Y-8685619D02*
X6457143Y-8723714D01*
X6457143Y-8723714D02*
X6457143Y-8771333D01*
X6457143Y-8771333D02*
X6447619Y-8809429D01*
X6447619Y-8809429D02*
X6438095Y-8828476D01*
X6438095Y-8828476D02*
X6428572Y-8838000D01*
X6428572Y-8838000D02*
X6409524Y-8847524D01*
X6409524Y-8847524D02*
X6390476Y-8847524D01*
X6390476Y-8847524D02*
X6371429Y-8838000D01*
X6371429Y-8838000D02*
X6361905Y-8828476D01*
X6361905Y-8828476D02*
X6352381Y-8809429D01*
X6352381Y-8809429D02*
X6342857Y-8771333D01*
X6342857Y-8771333D02*
X6342857Y-8723714D01*
X6342857Y-8723714D02*
X6352381Y-8685619D01*
X6352381Y-8685619D02*
X6361905Y-8666571D01*
X6361905Y-8666571D02*
X6371429Y-8657048D01*
X6371429Y-8657048D02*
X6390476Y-8647524D01*
X6542857Y-8828476D02*
X6552381Y-8838000D01*
X6552381Y-8838000D02*
X6542857Y-8847524D01*
X6542857Y-8847524D02*
X6533333Y-8838000D01*
X6533333Y-8838000D02*
X6542857Y-8828476D01*
X6542857Y-8828476D02*
X6542857Y-8847524D01*
X6676191Y-8647524D02*
X6695238Y-8647524D01*
X6695238Y-8647524D02*
X6714286Y-8657048D01*
X6714286Y-8657048D02*
X6723810Y-8666571D01*
X6723810Y-8666571D02*
X6733333Y-8685619D01*
X6733333Y-8685619D02*
X6742857Y-8723714D01*
X6742857Y-8723714D02*
X6742857Y-8771333D01*
X6742857Y-8771333D02*
X6733333Y-8809429D01*
X6733333Y-8809429D02*
X6723810Y-8828476D01*
X6723810Y-8828476D02*
X6714286Y-8838000D01*
X6714286Y-8838000D02*
X6695238Y-8847524D01*
X6695238Y-8847524D02*
X6676191Y-8847524D01*
X6676191Y-8847524D02*
X6657143Y-8838000D01*
X6657143Y-8838000D02*
X6647619Y-8828476D01*
X6647619Y-8828476D02*
X6638095Y-8809429D01*
X6638095Y-8809429D02*
X6628572Y-8771333D01*
X6628572Y-8771333D02*
X6628572Y-8723714D01*
X6628572Y-8723714D02*
X6638095Y-8685619D01*
X6638095Y-8685619D02*
X6647619Y-8666571D01*
X6647619Y-8666571D02*
X6657143Y-8657048D01*
X6657143Y-8657048D02*
X6676191Y-8647524D01*
X6933333Y-8847524D02*
X6819048Y-8847524D01*
X6876191Y-8847524D02*
X6876191Y-8647524D01*
X6876191Y-8647524D02*
X6857143Y-8676095D01*
X6857143Y-8676095D02*
X6838095Y-8695143D01*
X6838095Y-8695143D02*
X6819048Y-8704667D01*
X7114286Y-8647524D02*
X7019048Y-8647524D01*
X7019048Y-8647524D02*
X7009524Y-8742762D01*
X7009524Y-8742762D02*
X7019048Y-8733238D01*
X7019048Y-8733238D02*
X7038095Y-8723714D01*
X7038095Y-8723714D02*
X7085714Y-8723714D01*
X7085714Y-8723714D02*
X7104762Y-8733238D01*
X7104762Y-8733238D02*
X7114286Y-8742762D01*
X7114286Y-8742762D02*
X7123810Y-8761810D01*
X7123810Y-8761810D02*
X7123810Y-8809429D01*
X7123810Y-8809429D02*
X7114286Y-8828476D01*
X7114286Y-8828476D02*
X7104762Y-8838000D01*
X7104762Y-8838000D02*
X7085714Y-8847524D01*
X7085714Y-8847524D02*
X7038095Y-8847524D01*
X7038095Y-8847524D02*
X7019048Y-8838000D01*
X7019048Y-8838000D02*
X7009524Y-8828476D01*
X7190476Y-8647524D02*
X7323810Y-8647524D01*
X7323810Y-8647524D02*
X7238095Y-8847524D01*
X7390476Y-8647524D02*
X7390476Y-8685619D01*
X7466667Y-8647524D02*
X7466667Y-8685619D01*
X7761905Y-8923714D02*
X7752381Y-8914190D01*
X7752381Y-8914190D02*
X7733334Y-8885619D01*
X7733334Y-8885619D02*
X7723810Y-8866571D01*
X7723810Y-8866571D02*
X7714286Y-8838000D01*
X7714286Y-8838000D02*
X7704762Y-8790381D01*
X7704762Y-8790381D02*
X7704762Y-8752286D01*
X7704762Y-8752286D02*
X7714286Y-8704667D01*
X7714286Y-8704667D02*
X7723810Y-8676095D01*
X7723810Y-8676095D02*
X7733334Y-8657048D01*
X7733334Y-8657048D02*
X7752381Y-8628476D01*
X7752381Y-8628476D02*
X7761905Y-8618952D01*
X7942857Y-8847524D02*
X7828572Y-8847524D01*
X7885714Y-8847524D02*
X7885714Y-8647524D01*
X7885714Y-8647524D02*
X7866667Y-8676095D01*
X7866667Y-8676095D02*
X7847619Y-8695143D01*
X7847619Y-8695143D02*
X7828572Y-8704667D01*
X8180953Y-8847524D02*
X8180953Y-8647524D01*
X8266667Y-8847524D02*
X8266667Y-8742762D01*
X8266667Y-8742762D02*
X8257143Y-8723714D01*
X8257143Y-8723714D02*
X8238096Y-8714190D01*
X8238096Y-8714190D02*
X8209524Y-8714190D01*
X8209524Y-8714190D02*
X8190476Y-8723714D01*
X8190476Y-8723714D02*
X8180953Y-8733238D01*
X8390477Y-8847524D02*
X8371429Y-8838000D01*
X8371429Y-8838000D02*
X8361905Y-8828476D01*
X8361905Y-8828476D02*
X8352381Y-8809429D01*
X8352381Y-8809429D02*
X8352381Y-8752286D01*
X8352381Y-8752286D02*
X8361905Y-8733238D01*
X8361905Y-8733238D02*
X8371429Y-8723714D01*
X8371429Y-8723714D02*
X8390477Y-8714190D01*
X8390477Y-8714190D02*
X8419048Y-8714190D01*
X8419048Y-8714190D02*
X8438096Y-8723714D01*
X8438096Y-8723714D02*
X8447619Y-8733238D01*
X8447619Y-8733238D02*
X8457143Y-8752286D01*
X8457143Y-8752286D02*
X8457143Y-8809429D01*
X8457143Y-8809429D02*
X8447619Y-8828476D01*
X8447619Y-8828476D02*
X8438096Y-8838000D01*
X8438096Y-8838000D02*
X8419048Y-8847524D01*
X8419048Y-8847524D02*
X8390477Y-8847524D01*
X8571429Y-8847524D02*
X8552381Y-8838000D01*
X8552381Y-8838000D02*
X8542858Y-8818952D01*
X8542858Y-8818952D02*
X8542858Y-8647524D01*
X8723810Y-8838000D02*
X8704762Y-8847524D01*
X8704762Y-8847524D02*
X8666667Y-8847524D01*
X8666667Y-8847524D02*
X8647619Y-8838000D01*
X8647619Y-8838000D02*
X8638096Y-8818952D01*
X8638096Y-8818952D02*
X8638096Y-8742762D01*
X8638096Y-8742762D02*
X8647619Y-8723714D01*
X8647619Y-8723714D02*
X8666667Y-8714190D01*
X8666667Y-8714190D02*
X8704762Y-8714190D01*
X8704762Y-8714190D02*
X8723810Y-8723714D01*
X8723810Y-8723714D02*
X8733334Y-8742762D01*
X8733334Y-8742762D02*
X8733334Y-8761810D01*
X8733334Y-8761810D02*
X8638096Y-8780857D01*
X8800000Y-8923714D02*
X8809524Y-8914190D01*
X8809524Y-8914190D02*
X8828572Y-8885619D01*
X8828572Y-8885619D02*
X8838096Y-8866571D01*
X8838096Y-8866571D02*
X8847619Y-8838000D01*
X8847619Y-8838000D02*
X8857143Y-8790381D01*
X8857143Y-8790381D02*
X8857143Y-8752286D01*
X8857143Y-8752286D02*
X8847619Y-8704667D01*
X8847619Y-8704667D02*
X8838096Y-8676095D01*
X8838096Y-8676095D02*
X8828572Y-8657048D01*
X8828572Y-8657048D02*
X8809524Y-8628476D01*
X8809524Y-8628476D02*
X8800000Y-8618952D01*
D13*
X4200000Y-9019000D02*
G75*
G03*
X4200000Y-9019000I-38100J0D01*
G01*
D11*
X4485714Y-8911524D02*
X4504762Y-8911524D01*
X4504762Y-8911524D02*
X4523810Y-8921048D01*
X4523810Y-8921048D02*
X4533333Y-8930571D01*
X4533333Y-8930571D02*
X4542857Y-8949619D01*
X4542857Y-8949619D02*
X4552381Y-8987714D01*
X4552381Y-8987714D02*
X4552381Y-9035333D01*
X4552381Y-9035333D02*
X4542857Y-9073429D01*
X4542857Y-9073429D02*
X4533333Y-9092476D01*
X4533333Y-9092476D02*
X4523810Y-9102000D01*
X4523810Y-9102000D02*
X4504762Y-9111524D01*
X4504762Y-9111524D02*
X4485714Y-9111524D01*
X4485714Y-9111524D02*
X4466667Y-9102000D01*
X4466667Y-9102000D02*
X4457143Y-9092476D01*
X4457143Y-9092476D02*
X4447619Y-9073429D01*
X4447619Y-9073429D02*
X4438095Y-9035333D01*
X4438095Y-9035333D02*
X4438095Y-8987714D01*
X4438095Y-8987714D02*
X4447619Y-8949619D01*
X4447619Y-8949619D02*
X4457143Y-8930571D01*
X4457143Y-8930571D02*
X4466667Y-8921048D01*
X4466667Y-8921048D02*
X4485714Y-8911524D01*
X4638095Y-9092476D02*
X4647619Y-9102000D01*
X4647619Y-9102000D02*
X4638095Y-9111524D01*
X4638095Y-9111524D02*
X4628571Y-9102000D01*
X4628571Y-9102000D02*
X4638095Y-9092476D01*
X4638095Y-9092476D02*
X4638095Y-9111524D01*
X4714286Y-8911524D02*
X4847619Y-8911524D01*
X4847619Y-8911524D02*
X4761905Y-9111524D01*
X5009524Y-8911524D02*
X4971429Y-8911524D01*
X4971429Y-8911524D02*
X4952381Y-8921048D01*
X4952381Y-8921048D02*
X4942857Y-8930571D01*
X4942857Y-8930571D02*
X4923810Y-8959143D01*
X4923810Y-8959143D02*
X4914286Y-8997238D01*
X4914286Y-8997238D02*
X4914286Y-9073429D01*
X4914286Y-9073429D02*
X4923810Y-9092476D01*
X4923810Y-9092476D02*
X4933333Y-9102000D01*
X4933333Y-9102000D02*
X4952381Y-9111524D01*
X4952381Y-9111524D02*
X4990476Y-9111524D01*
X4990476Y-9111524D02*
X5009524Y-9102000D01*
X5009524Y-9102000D02*
X5019048Y-9092476D01*
X5019048Y-9092476D02*
X5028571Y-9073429D01*
X5028571Y-9073429D02*
X5028571Y-9025810D01*
X5028571Y-9025810D02*
X5019048Y-9006762D01*
X5019048Y-9006762D02*
X5009524Y-8997238D01*
X5009524Y-8997238D02*
X4990476Y-8987714D01*
X4990476Y-8987714D02*
X4952381Y-8987714D01*
X4952381Y-8987714D02*
X4933333Y-8997238D01*
X4933333Y-8997238D02*
X4923810Y-9006762D01*
X4923810Y-9006762D02*
X4914286Y-9025810D01*
X5104762Y-8930571D02*
X5114286Y-8921048D01*
X5114286Y-8921048D02*
X5133333Y-8911524D01*
X5133333Y-8911524D02*
X5180952Y-8911524D01*
X5180952Y-8911524D02*
X5200000Y-8921048D01*
X5200000Y-8921048D02*
X5209524Y-8930571D01*
X5209524Y-8930571D02*
X5219048Y-8949619D01*
X5219048Y-8949619D02*
X5219048Y-8968667D01*
X5219048Y-8968667D02*
X5209524Y-8997238D01*
X5209524Y-8997238D02*
X5095238Y-9111524D01*
X5095238Y-9111524D02*
X5219048Y-9111524D01*
X5304762Y-9111524D02*
X5304762Y-8978190D01*
X5304762Y-8997238D02*
X5314286Y-8987714D01*
X5314286Y-8987714D02*
X5333333Y-8978190D01*
X5333333Y-8978190D02*
X5361905Y-8978190D01*
X5361905Y-8978190D02*
X5380952Y-8987714D01*
X5380952Y-8987714D02*
X5390476Y-9006762D01*
X5390476Y-9006762D02*
X5390476Y-9111524D01*
X5390476Y-9006762D02*
X5400000Y-8987714D01*
X5400000Y-8987714D02*
X5419048Y-8978190D01*
X5419048Y-8978190D02*
X5447619Y-8978190D01*
X5447619Y-8978190D02*
X5466667Y-8987714D01*
X5466667Y-8987714D02*
X5476191Y-9006762D01*
X5476191Y-9006762D02*
X5476191Y-9111524D01*
X5571429Y-9111524D02*
X5571429Y-8978190D01*
X5571429Y-8997238D02*
X5580952Y-8987714D01*
X5580952Y-8987714D02*
X5600000Y-8978190D01*
X5600000Y-8978190D02*
X5628571Y-8978190D01*
X5628571Y-8978190D02*
X5647619Y-8987714D01*
X5647619Y-8987714D02*
X5657143Y-9006762D01*
X5657143Y-9006762D02*
X5657143Y-9111524D01*
X5657143Y-9006762D02*
X5666667Y-8987714D01*
X5666667Y-8987714D02*
X5685714Y-8978190D01*
X5685714Y-8978190D02*
X5714286Y-8978190D01*
X5714286Y-8978190D02*
X5733333Y-8987714D01*
X5733333Y-8987714D02*
X5742857Y-9006762D01*
X5742857Y-9006762D02*
X5742857Y-9111524D01*
X6133333Y-8902000D02*
X5961905Y-9159143D01*
X6390476Y-8911524D02*
X6409524Y-8911524D01*
X6409524Y-8911524D02*
X6428572Y-8921048D01*
X6428572Y-8921048D02*
X6438095Y-8930571D01*
X6438095Y-8930571D02*
X6447619Y-8949619D01*
X6447619Y-8949619D02*
X6457143Y-8987714D01*
X6457143Y-8987714D02*
X6457143Y-9035333D01*
X6457143Y-9035333D02*
X6447619Y-9073429D01*
X6447619Y-9073429D02*
X6438095Y-9092476D01*
X6438095Y-9092476D02*
X6428572Y-9102000D01*
X6428572Y-9102000D02*
X6409524Y-9111524D01*
X6409524Y-9111524D02*
X6390476Y-9111524D01*
X6390476Y-9111524D02*
X6371429Y-9102000D01*
X6371429Y-9102000D02*
X6361905Y-9092476D01*
X6361905Y-9092476D02*
X6352381Y-9073429D01*
X6352381Y-9073429D02*
X6342857Y-9035333D01*
X6342857Y-9035333D02*
X6342857Y-8987714D01*
X6342857Y-8987714D02*
X6352381Y-8949619D01*
X6352381Y-8949619D02*
X6361905Y-8930571D01*
X6361905Y-8930571D02*
X6371429Y-8921048D01*
X6371429Y-8921048D02*
X6390476Y-8911524D01*
X6542857Y-9092476D02*
X6552381Y-9102000D01*
X6552381Y-9102000D02*
X6542857Y-9111524D01*
X6542857Y-9111524D02*
X6533333Y-9102000D01*
X6533333Y-9102000D02*
X6542857Y-9092476D01*
X6542857Y-9092476D02*
X6542857Y-9111524D01*
X6676191Y-8911524D02*
X6695238Y-8911524D01*
X6695238Y-8911524D02*
X6714286Y-8921048D01*
X6714286Y-8921048D02*
X6723810Y-8930571D01*
X6723810Y-8930571D02*
X6733333Y-8949619D01*
X6733333Y-8949619D02*
X6742857Y-8987714D01*
X6742857Y-8987714D02*
X6742857Y-9035333D01*
X6742857Y-9035333D02*
X6733333Y-9073429D01*
X6733333Y-9073429D02*
X6723810Y-9092476D01*
X6723810Y-9092476D02*
X6714286Y-9102000D01*
X6714286Y-9102000D02*
X6695238Y-9111524D01*
X6695238Y-9111524D02*
X6676191Y-9111524D01*
X6676191Y-9111524D02*
X6657143Y-9102000D01*
X6657143Y-9102000D02*
X6647619Y-9092476D01*
X6647619Y-9092476D02*
X6638095Y-9073429D01*
X6638095Y-9073429D02*
X6628572Y-9035333D01*
X6628572Y-9035333D02*
X6628572Y-8987714D01*
X6628572Y-8987714D02*
X6638095Y-8949619D01*
X6638095Y-8949619D02*
X6647619Y-8930571D01*
X6647619Y-8930571D02*
X6657143Y-8921048D01*
X6657143Y-8921048D02*
X6676191Y-8911524D01*
X6809524Y-8911524D02*
X6933333Y-8911524D01*
X6933333Y-8911524D02*
X6866667Y-8987714D01*
X6866667Y-8987714D02*
X6895238Y-8987714D01*
X6895238Y-8987714D02*
X6914286Y-8997238D01*
X6914286Y-8997238D02*
X6923810Y-9006762D01*
X6923810Y-9006762D02*
X6933333Y-9025810D01*
X6933333Y-9025810D02*
X6933333Y-9073429D01*
X6933333Y-9073429D02*
X6923810Y-9092476D01*
X6923810Y-9092476D02*
X6914286Y-9102000D01*
X6914286Y-9102000D02*
X6895238Y-9111524D01*
X6895238Y-9111524D02*
X6838095Y-9111524D01*
X6838095Y-9111524D02*
X6819048Y-9102000D01*
X6819048Y-9102000D02*
X6809524Y-9092476D01*
X7057143Y-8911524D02*
X7076191Y-8911524D01*
X7076191Y-8911524D02*
X7095238Y-8921048D01*
X7095238Y-8921048D02*
X7104762Y-8930571D01*
X7104762Y-8930571D02*
X7114286Y-8949619D01*
X7114286Y-8949619D02*
X7123810Y-8987714D01*
X7123810Y-8987714D02*
X7123810Y-9035333D01*
X7123810Y-9035333D02*
X7114286Y-9073429D01*
X7114286Y-9073429D02*
X7104762Y-9092476D01*
X7104762Y-9092476D02*
X7095238Y-9102000D01*
X7095238Y-9102000D02*
X7076191Y-9111524D01*
X7076191Y-9111524D02*
X7057143Y-9111524D01*
X7057143Y-9111524D02*
X7038095Y-9102000D01*
X7038095Y-9102000D02*
X7028572Y-9092476D01*
X7028572Y-9092476D02*
X7019048Y-9073429D01*
X7019048Y-9073429D02*
X7009524Y-9035333D01*
X7009524Y-9035333D02*
X7009524Y-8987714D01*
X7009524Y-8987714D02*
X7019048Y-8949619D01*
X7019048Y-8949619D02*
X7028572Y-8930571D01*
X7028572Y-8930571D02*
X7038095Y-8921048D01*
X7038095Y-8921048D02*
X7057143Y-8911524D01*
X7247619Y-8911524D02*
X7266667Y-8911524D01*
X7266667Y-8911524D02*
X7285714Y-8921048D01*
X7285714Y-8921048D02*
X7295238Y-8930571D01*
X7295238Y-8930571D02*
X7304762Y-8949619D01*
X7304762Y-8949619D02*
X7314286Y-8987714D01*
X7314286Y-8987714D02*
X7314286Y-9035333D01*
X7314286Y-9035333D02*
X7304762Y-9073429D01*
X7304762Y-9073429D02*
X7295238Y-9092476D01*
X7295238Y-9092476D02*
X7285714Y-9102000D01*
X7285714Y-9102000D02*
X7266667Y-9111524D01*
X7266667Y-9111524D02*
X7247619Y-9111524D01*
X7247619Y-9111524D02*
X7228572Y-9102000D01*
X7228572Y-9102000D02*
X7219048Y-9092476D01*
X7219048Y-9092476D02*
X7209524Y-9073429D01*
X7209524Y-9073429D02*
X7200000Y-9035333D01*
X7200000Y-9035333D02*
X7200000Y-8987714D01*
X7200000Y-8987714D02*
X7209524Y-8949619D01*
X7209524Y-8949619D02*
X7219048Y-8930571D01*
X7219048Y-8930571D02*
X7228572Y-8921048D01*
X7228572Y-8921048D02*
X7247619Y-8911524D01*
X7390476Y-8911524D02*
X7390476Y-8949619D01*
X7466667Y-8911524D02*
X7466667Y-8949619D01*
X7761905Y-9187714D02*
X7752381Y-9178190D01*
X7752381Y-9178190D02*
X7733334Y-9149619D01*
X7733334Y-9149619D02*
X7723810Y-9130571D01*
X7723810Y-9130571D02*
X7714286Y-9102000D01*
X7714286Y-9102000D02*
X7704762Y-9054381D01*
X7704762Y-9054381D02*
X7704762Y-9016286D01*
X7704762Y-9016286D02*
X7714286Y-8968667D01*
X7714286Y-8968667D02*
X7723810Y-8940095D01*
X7723810Y-8940095D02*
X7733334Y-8921048D01*
X7733334Y-8921048D02*
X7752381Y-8892476D01*
X7752381Y-8892476D02*
X7761905Y-8882952D01*
X7828572Y-8930571D02*
X7838095Y-8921048D01*
X7838095Y-8921048D02*
X7857143Y-8911524D01*
X7857143Y-8911524D02*
X7904762Y-8911524D01*
X7904762Y-8911524D02*
X7923810Y-8921048D01*
X7923810Y-8921048D02*
X7933334Y-8930571D01*
X7933334Y-8930571D02*
X7942857Y-8949619D01*
X7942857Y-8949619D02*
X7942857Y-8968667D01*
X7942857Y-8968667D02*
X7933334Y-8997238D01*
X7933334Y-8997238D02*
X7819048Y-9111524D01*
X7819048Y-9111524D02*
X7942857Y-9111524D01*
X8114286Y-8911524D02*
X8076191Y-8911524D01*
X8076191Y-8911524D02*
X8057143Y-8921048D01*
X8057143Y-8921048D02*
X8047619Y-8930571D01*
X8047619Y-8930571D02*
X8028572Y-8959143D01*
X8028572Y-8959143D02*
X8019048Y-8997238D01*
X8019048Y-8997238D02*
X8019048Y-9073429D01*
X8019048Y-9073429D02*
X8028572Y-9092476D01*
X8028572Y-9092476D02*
X8038095Y-9102000D01*
X8038095Y-9102000D02*
X8057143Y-9111524D01*
X8057143Y-9111524D02*
X8095238Y-9111524D01*
X8095238Y-9111524D02*
X8114286Y-9102000D01*
X8114286Y-9102000D02*
X8123810Y-9092476D01*
X8123810Y-9092476D02*
X8133334Y-9073429D01*
X8133334Y-9073429D02*
X8133334Y-9025810D01*
X8133334Y-9025810D02*
X8123810Y-9006762D01*
X8123810Y-9006762D02*
X8114286Y-8997238D01*
X8114286Y-8997238D02*
X8095238Y-8987714D01*
X8095238Y-8987714D02*
X8057143Y-8987714D01*
X8057143Y-8987714D02*
X8038095Y-8997238D01*
X8038095Y-8997238D02*
X8028572Y-9006762D01*
X8028572Y-9006762D02*
X8019048Y-9025810D01*
X8371429Y-9111524D02*
X8371429Y-8911524D01*
X8457143Y-9111524D02*
X8457143Y-9006762D01*
X8457143Y-9006762D02*
X8447619Y-8987714D01*
X8447619Y-8987714D02*
X8428572Y-8978190D01*
X8428572Y-8978190D02*
X8400000Y-8978190D01*
X8400000Y-8978190D02*
X8380953Y-8987714D01*
X8380953Y-8987714D02*
X8371429Y-8997238D01*
X8580953Y-9111524D02*
X8561905Y-9102000D01*
X8561905Y-9102000D02*
X8552381Y-9092476D01*
X8552381Y-9092476D02*
X8542858Y-9073429D01*
X8542858Y-9073429D02*
X8542858Y-9016286D01*
X8542858Y-9016286D02*
X8552381Y-8997238D01*
X8552381Y-8997238D02*
X8561905Y-8987714D01*
X8561905Y-8987714D02*
X8580953Y-8978190D01*
X8580953Y-8978190D02*
X8609524Y-8978190D01*
X8609524Y-8978190D02*
X8628572Y-8987714D01*
X8628572Y-8987714D02*
X8638096Y-8997238D01*
X8638096Y-8997238D02*
X8647619Y-9016286D01*
X8647619Y-9016286D02*
X8647619Y-9073429D01*
X8647619Y-9073429D02*
X8638096Y-9092476D01*
X8638096Y-9092476D02*
X8628572Y-9102000D01*
X8628572Y-9102000D02*
X8609524Y-9111524D01*
X8609524Y-9111524D02*
X8580953Y-9111524D01*
X8761905Y-9111524D02*
X8742858Y-9102000D01*
X8742858Y-9102000D02*
X8733334Y-9082952D01*
X8733334Y-9082952D02*
X8733334Y-8911524D01*
X8914286Y-9102000D02*
X8895239Y-9111524D01*
X8895239Y-9111524D02*
X8857143Y-9111524D01*
X8857143Y-9111524D02*
X8838096Y-9102000D01*
X8838096Y-9102000D02*
X8828572Y-9082952D01*
X8828572Y-9082952D02*
X8828572Y-9006762D01*
X8828572Y-9006762D02*
X8838096Y-8987714D01*
X8838096Y-8987714D02*
X8857143Y-8978190D01*
X8857143Y-8978190D02*
X8895239Y-8978190D01*
X8895239Y-8978190D02*
X8914286Y-8987714D01*
X8914286Y-8987714D02*
X8923810Y-9006762D01*
X8923810Y-9006762D02*
X8923810Y-9025810D01*
X8923810Y-9025810D02*
X8828572Y-9044857D01*
X9000000Y-9102000D02*
X9019048Y-9111524D01*
X9019048Y-9111524D02*
X9057143Y-9111524D01*
X9057143Y-9111524D02*
X9076191Y-9102000D01*
X9076191Y-9102000D02*
X9085715Y-9082952D01*
X9085715Y-9082952D02*
X9085715Y-9073429D01*
X9085715Y-9073429D02*
X9076191Y-9054381D01*
X9076191Y-9054381D02*
X9057143Y-9044857D01*
X9057143Y-9044857D02*
X9028572Y-9044857D01*
X9028572Y-9044857D02*
X9009524Y-9035333D01*
X9009524Y-9035333D02*
X9000000Y-9016286D01*
X9000000Y-9016286D02*
X9000000Y-9006762D01*
X9000000Y-9006762D02*
X9009524Y-8987714D01*
X9009524Y-8987714D02*
X9028572Y-8978190D01*
X9028572Y-8978190D02*
X9057143Y-8978190D01*
X9057143Y-8978190D02*
X9076191Y-8987714D01*
X9152381Y-9187714D02*
X9161905Y-9178190D01*
X9161905Y-9178190D02*
X9180953Y-9149619D01*
X9180953Y-9149619D02*
X9190477Y-9130571D01*
X9190477Y-9130571D02*
X9200000Y-9102000D01*
X9200000Y-9102000D02*
X9209524Y-9054381D01*
X9209524Y-9054381D02*
X9209524Y-9016286D01*
X9209524Y-9016286D02*
X9200000Y-8968667D01*
X9200000Y-8968667D02*
X9190477Y-8940095D01*
X9190477Y-8940095D02*
X9180953Y-8921048D01*
X9180953Y-8921048D02*
X9161905Y-8892476D01*
X9161905Y-8892476D02*
X9152381Y-8882952D01*
D10*
X4150000Y-9233000D02*
X4150000Y-9333000D01*
X4100000Y-9283000D02*
X4200000Y-9283000D01*
D11*
X4552381Y-9375524D02*
X4438095Y-9375524D01*
X4495238Y-9375524D02*
X4495238Y-9175524D01*
X4495238Y-9175524D02*
X4476190Y-9204095D01*
X4476190Y-9204095D02*
X4457143Y-9223143D01*
X4457143Y-9223143D02*
X4438095Y-9232667D01*
X4638095Y-9356476D02*
X4647619Y-9366000D01*
X4647619Y-9366000D02*
X4638095Y-9375524D01*
X4638095Y-9375524D02*
X4628571Y-9366000D01*
X4628571Y-9366000D02*
X4638095Y-9356476D01*
X4638095Y-9356476D02*
X4638095Y-9375524D01*
X4771429Y-9175524D02*
X4790476Y-9175524D01*
X4790476Y-9175524D02*
X4809524Y-9185048D01*
X4809524Y-9185048D02*
X4819048Y-9194571D01*
X4819048Y-9194571D02*
X4828571Y-9213619D01*
X4828571Y-9213619D02*
X4838095Y-9251714D01*
X4838095Y-9251714D02*
X4838095Y-9299333D01*
X4838095Y-9299333D02*
X4828571Y-9337429D01*
X4828571Y-9337429D02*
X4819048Y-9356476D01*
X4819048Y-9356476D02*
X4809524Y-9366000D01*
X4809524Y-9366000D02*
X4790476Y-9375524D01*
X4790476Y-9375524D02*
X4771429Y-9375524D01*
X4771429Y-9375524D02*
X4752381Y-9366000D01*
X4752381Y-9366000D02*
X4742857Y-9356476D01*
X4742857Y-9356476D02*
X4733333Y-9337429D01*
X4733333Y-9337429D02*
X4723810Y-9299333D01*
X4723810Y-9299333D02*
X4723810Y-9251714D01*
X4723810Y-9251714D02*
X4733333Y-9213619D01*
X4733333Y-9213619D02*
X4742857Y-9194571D01*
X4742857Y-9194571D02*
X4752381Y-9185048D01*
X4752381Y-9185048D02*
X4771429Y-9175524D01*
X4961905Y-9175524D02*
X4980952Y-9175524D01*
X4980952Y-9175524D02*
X5000000Y-9185048D01*
X5000000Y-9185048D02*
X5009524Y-9194571D01*
X5009524Y-9194571D02*
X5019048Y-9213619D01*
X5019048Y-9213619D02*
X5028571Y-9251714D01*
X5028571Y-9251714D02*
X5028571Y-9299333D01*
X5028571Y-9299333D02*
X5019048Y-9337429D01*
X5019048Y-9337429D02*
X5009524Y-9356476D01*
X5009524Y-9356476D02*
X5000000Y-9366000D01*
X5000000Y-9366000D02*
X4980952Y-9375524D01*
X4980952Y-9375524D02*
X4961905Y-9375524D01*
X4961905Y-9375524D02*
X4942857Y-9366000D01*
X4942857Y-9366000D02*
X4933333Y-9356476D01*
X4933333Y-9356476D02*
X4923810Y-9337429D01*
X4923810Y-9337429D02*
X4914286Y-9299333D01*
X4914286Y-9299333D02*
X4914286Y-9251714D01*
X4914286Y-9251714D02*
X4923810Y-9213619D01*
X4923810Y-9213619D02*
X4933333Y-9194571D01*
X4933333Y-9194571D02*
X4942857Y-9185048D01*
X4942857Y-9185048D02*
X4961905Y-9175524D01*
X5152381Y-9175524D02*
X5171429Y-9175524D01*
X5171429Y-9175524D02*
X5190476Y-9185048D01*
X5190476Y-9185048D02*
X5200000Y-9194571D01*
X5200000Y-9194571D02*
X5209524Y-9213619D01*
X5209524Y-9213619D02*
X5219048Y-9251714D01*
X5219048Y-9251714D02*
X5219048Y-9299333D01*
X5219048Y-9299333D02*
X5209524Y-9337429D01*
X5209524Y-9337429D02*
X5200000Y-9356476D01*
X5200000Y-9356476D02*
X5190476Y-9366000D01*
X5190476Y-9366000D02*
X5171429Y-9375524D01*
X5171429Y-9375524D02*
X5152381Y-9375524D01*
X5152381Y-9375524D02*
X5133333Y-9366000D01*
X5133333Y-9366000D02*
X5123810Y-9356476D01*
X5123810Y-9356476D02*
X5114286Y-9337429D01*
X5114286Y-9337429D02*
X5104762Y-9299333D01*
X5104762Y-9299333D02*
X5104762Y-9251714D01*
X5104762Y-9251714D02*
X5114286Y-9213619D01*
X5114286Y-9213619D02*
X5123810Y-9194571D01*
X5123810Y-9194571D02*
X5133333Y-9185048D01*
X5133333Y-9185048D02*
X5152381Y-9175524D01*
X5304762Y-9375524D02*
X5304762Y-9242190D01*
X5304762Y-9261238D02*
X5314286Y-9251714D01*
X5314286Y-9251714D02*
X5333333Y-9242190D01*
X5333333Y-9242190D02*
X5361905Y-9242190D01*
X5361905Y-9242190D02*
X5380952Y-9251714D01*
X5380952Y-9251714D02*
X5390476Y-9270762D01*
X5390476Y-9270762D02*
X5390476Y-9375524D01*
X5390476Y-9270762D02*
X5400000Y-9251714D01*
X5400000Y-9251714D02*
X5419048Y-9242190D01*
X5419048Y-9242190D02*
X5447619Y-9242190D01*
X5447619Y-9242190D02*
X5466667Y-9251714D01*
X5466667Y-9251714D02*
X5476191Y-9270762D01*
X5476191Y-9270762D02*
X5476191Y-9375524D01*
X5571429Y-9375524D02*
X5571429Y-9242190D01*
X5571429Y-9261238D02*
X5580952Y-9251714D01*
X5580952Y-9251714D02*
X5600000Y-9242190D01*
X5600000Y-9242190D02*
X5628571Y-9242190D01*
X5628571Y-9242190D02*
X5647619Y-9251714D01*
X5647619Y-9251714D02*
X5657143Y-9270762D01*
X5657143Y-9270762D02*
X5657143Y-9375524D01*
X5657143Y-9270762D02*
X5666667Y-9251714D01*
X5666667Y-9251714D02*
X5685714Y-9242190D01*
X5685714Y-9242190D02*
X5714286Y-9242190D01*
X5714286Y-9242190D02*
X5733333Y-9251714D01*
X5733333Y-9251714D02*
X5742857Y-9270762D01*
X5742857Y-9270762D02*
X5742857Y-9375524D01*
X6133333Y-9166000D02*
X5961905Y-9423143D01*
X6390476Y-9175524D02*
X6409524Y-9175524D01*
X6409524Y-9175524D02*
X6428572Y-9185048D01*
X6428572Y-9185048D02*
X6438095Y-9194571D01*
X6438095Y-9194571D02*
X6447619Y-9213619D01*
X6447619Y-9213619D02*
X6457143Y-9251714D01*
X6457143Y-9251714D02*
X6457143Y-9299333D01*
X6457143Y-9299333D02*
X6447619Y-9337429D01*
X6447619Y-9337429D02*
X6438095Y-9356476D01*
X6438095Y-9356476D02*
X6428572Y-9366000D01*
X6428572Y-9366000D02*
X6409524Y-9375524D01*
X6409524Y-9375524D02*
X6390476Y-9375524D01*
X6390476Y-9375524D02*
X6371429Y-9366000D01*
X6371429Y-9366000D02*
X6361905Y-9356476D01*
X6361905Y-9356476D02*
X6352381Y-9337429D01*
X6352381Y-9337429D02*
X6342857Y-9299333D01*
X6342857Y-9299333D02*
X6342857Y-9251714D01*
X6342857Y-9251714D02*
X6352381Y-9213619D01*
X6352381Y-9213619D02*
X6361905Y-9194571D01*
X6361905Y-9194571D02*
X6371429Y-9185048D01*
X6371429Y-9185048D02*
X6390476Y-9175524D01*
X6542857Y-9356476D02*
X6552381Y-9366000D01*
X6552381Y-9366000D02*
X6542857Y-9375524D01*
X6542857Y-9375524D02*
X6533333Y-9366000D01*
X6533333Y-9366000D02*
X6542857Y-9356476D01*
X6542857Y-9356476D02*
X6542857Y-9375524D01*
X6676191Y-9175524D02*
X6695238Y-9175524D01*
X6695238Y-9175524D02*
X6714286Y-9185048D01*
X6714286Y-9185048D02*
X6723810Y-9194571D01*
X6723810Y-9194571D02*
X6733333Y-9213619D01*
X6733333Y-9213619D02*
X6742857Y-9251714D01*
X6742857Y-9251714D02*
X6742857Y-9299333D01*
X6742857Y-9299333D02*
X6733333Y-9337429D01*
X6733333Y-9337429D02*
X6723810Y-9356476D01*
X6723810Y-9356476D02*
X6714286Y-9366000D01*
X6714286Y-9366000D02*
X6695238Y-9375524D01*
X6695238Y-9375524D02*
X6676191Y-9375524D01*
X6676191Y-9375524D02*
X6657143Y-9366000D01*
X6657143Y-9366000D02*
X6647619Y-9356476D01*
X6647619Y-9356476D02*
X6638095Y-9337429D01*
X6638095Y-9337429D02*
X6628572Y-9299333D01*
X6628572Y-9299333D02*
X6628572Y-9251714D01*
X6628572Y-9251714D02*
X6638095Y-9213619D01*
X6638095Y-9213619D02*
X6647619Y-9194571D01*
X6647619Y-9194571D02*
X6657143Y-9185048D01*
X6657143Y-9185048D02*
X6676191Y-9175524D01*
X6809524Y-9175524D02*
X6933333Y-9175524D01*
X6933333Y-9175524D02*
X6866667Y-9251714D01*
X6866667Y-9251714D02*
X6895238Y-9251714D01*
X6895238Y-9251714D02*
X6914286Y-9261238D01*
X6914286Y-9261238D02*
X6923810Y-9270762D01*
X6923810Y-9270762D02*
X6933333Y-9289810D01*
X6933333Y-9289810D02*
X6933333Y-9337429D01*
X6933333Y-9337429D02*
X6923810Y-9356476D01*
X6923810Y-9356476D02*
X6914286Y-9366000D01*
X6914286Y-9366000D02*
X6895238Y-9375524D01*
X6895238Y-9375524D02*
X6838095Y-9375524D01*
X6838095Y-9375524D02*
X6819048Y-9366000D01*
X6819048Y-9366000D02*
X6809524Y-9356476D01*
X7028572Y-9375524D02*
X7066667Y-9375524D01*
X7066667Y-9375524D02*
X7085714Y-9366000D01*
X7085714Y-9366000D02*
X7095238Y-9356476D01*
X7095238Y-9356476D02*
X7114286Y-9327905D01*
X7114286Y-9327905D02*
X7123810Y-9289810D01*
X7123810Y-9289810D02*
X7123810Y-9213619D01*
X7123810Y-9213619D02*
X7114286Y-9194571D01*
X7114286Y-9194571D02*
X7104762Y-9185048D01*
X7104762Y-9185048D02*
X7085714Y-9175524D01*
X7085714Y-9175524D02*
X7047619Y-9175524D01*
X7047619Y-9175524D02*
X7028572Y-9185048D01*
X7028572Y-9185048D02*
X7019048Y-9194571D01*
X7019048Y-9194571D02*
X7009524Y-9213619D01*
X7009524Y-9213619D02*
X7009524Y-9261238D01*
X7009524Y-9261238D02*
X7019048Y-9280286D01*
X7019048Y-9280286D02*
X7028572Y-9289810D01*
X7028572Y-9289810D02*
X7047619Y-9299333D01*
X7047619Y-9299333D02*
X7085714Y-9299333D01*
X7085714Y-9299333D02*
X7104762Y-9289810D01*
X7104762Y-9289810D02*
X7114286Y-9280286D01*
X7114286Y-9280286D02*
X7123810Y-9261238D01*
X7295238Y-9242190D02*
X7295238Y-9375524D01*
X7247619Y-9166000D02*
X7200000Y-9308857D01*
X7200000Y-9308857D02*
X7323810Y-9308857D01*
X7390476Y-9175524D02*
X7390476Y-9213619D01*
X7466667Y-9175524D02*
X7466667Y-9213619D01*
X7761905Y-9451714D02*
X7752381Y-9442190D01*
X7752381Y-9442190D02*
X7733334Y-9413619D01*
X7733334Y-9413619D02*
X7723810Y-9394571D01*
X7723810Y-9394571D02*
X7714286Y-9366000D01*
X7714286Y-9366000D02*
X7704762Y-9318381D01*
X7704762Y-9318381D02*
X7704762Y-9280286D01*
X7704762Y-9280286D02*
X7714286Y-9232667D01*
X7714286Y-9232667D02*
X7723810Y-9204095D01*
X7723810Y-9204095D02*
X7733334Y-9185048D01*
X7733334Y-9185048D02*
X7752381Y-9156476D01*
X7752381Y-9156476D02*
X7761905Y-9146952D01*
X7819048Y-9175524D02*
X7942857Y-9175524D01*
X7942857Y-9175524D02*
X7876191Y-9251714D01*
X7876191Y-9251714D02*
X7904762Y-9251714D01*
X7904762Y-9251714D02*
X7923810Y-9261238D01*
X7923810Y-9261238D02*
X7933334Y-9270762D01*
X7933334Y-9270762D02*
X7942857Y-9289810D01*
X7942857Y-9289810D02*
X7942857Y-9337429D01*
X7942857Y-9337429D02*
X7933334Y-9356476D01*
X7933334Y-9356476D02*
X7923810Y-9366000D01*
X7923810Y-9366000D02*
X7904762Y-9375524D01*
X7904762Y-9375524D02*
X7847619Y-9375524D01*
X7847619Y-9375524D02*
X7828572Y-9366000D01*
X7828572Y-9366000D02*
X7819048Y-9356476D01*
X8066667Y-9175524D02*
X8085715Y-9175524D01*
X8085715Y-9175524D02*
X8104762Y-9185048D01*
X8104762Y-9185048D02*
X8114286Y-9194571D01*
X8114286Y-9194571D02*
X8123810Y-9213619D01*
X8123810Y-9213619D02*
X8133334Y-9251714D01*
X8133334Y-9251714D02*
X8133334Y-9299333D01*
X8133334Y-9299333D02*
X8123810Y-9337429D01*
X8123810Y-9337429D02*
X8114286Y-9356476D01*
X8114286Y-9356476D02*
X8104762Y-9366000D01*
X8104762Y-9366000D02*
X8085715Y-9375524D01*
X8085715Y-9375524D02*
X8066667Y-9375524D01*
X8066667Y-9375524D02*
X8047619Y-9366000D01*
X8047619Y-9366000D02*
X8038095Y-9356476D01*
X8038095Y-9356476D02*
X8028572Y-9337429D01*
X8028572Y-9337429D02*
X8019048Y-9299333D01*
X8019048Y-9299333D02*
X8019048Y-9251714D01*
X8019048Y-9251714D02*
X8028572Y-9213619D01*
X8028572Y-9213619D02*
X8038095Y-9194571D01*
X8038095Y-9194571D02*
X8047619Y-9185048D01*
X8047619Y-9185048D02*
X8066667Y-9175524D01*
X8371429Y-9375524D02*
X8371429Y-9175524D01*
X8457143Y-9375524D02*
X8457143Y-9270762D01*
X8457143Y-9270762D02*
X8447619Y-9251714D01*
X8447619Y-9251714D02*
X8428572Y-9242190D01*
X8428572Y-9242190D02*
X8400000Y-9242190D01*
X8400000Y-9242190D02*
X8380953Y-9251714D01*
X8380953Y-9251714D02*
X8371429Y-9261238D01*
X8580953Y-9375524D02*
X8561905Y-9366000D01*
X8561905Y-9366000D02*
X8552381Y-9356476D01*
X8552381Y-9356476D02*
X8542858Y-9337429D01*
X8542858Y-9337429D02*
X8542858Y-9280286D01*
X8542858Y-9280286D02*
X8552381Y-9261238D01*
X8552381Y-9261238D02*
X8561905Y-9251714D01*
X8561905Y-9251714D02*
X8580953Y-9242190D01*
X8580953Y-9242190D02*
X8609524Y-9242190D01*
X8609524Y-9242190D02*
X8628572Y-9251714D01*
X8628572Y-9251714D02*
X8638096Y-9261238D01*
X8638096Y-9261238D02*
X8647619Y-9280286D01*
X8647619Y-9280286D02*
X8647619Y-9337429D01*
X8647619Y-9337429D02*
X8638096Y-9356476D01*
X8638096Y-9356476D02*
X8628572Y-9366000D01*
X8628572Y-9366000D02*
X8609524Y-9375524D01*
X8609524Y-9375524D02*
X8580953Y-9375524D01*
X8761905Y-9375524D02*
X8742858Y-9366000D01*
X8742858Y-9366000D02*
X8733334Y-9346952D01*
X8733334Y-9346952D02*
X8733334Y-9175524D01*
X8914286Y-9366000D02*
X8895239Y-9375524D01*
X8895239Y-9375524D02*
X8857143Y-9375524D01*
X8857143Y-9375524D02*
X8838096Y-9366000D01*
X8838096Y-9366000D02*
X8828572Y-9346952D01*
X8828572Y-9346952D02*
X8828572Y-9270762D01*
X8828572Y-9270762D02*
X8838096Y-9251714D01*
X8838096Y-9251714D02*
X8857143Y-9242190D01*
X8857143Y-9242190D02*
X8895239Y-9242190D01*
X8895239Y-9242190D02*
X8914286Y-9251714D01*
X8914286Y-9251714D02*
X8923810Y-9270762D01*
X8923810Y-9270762D02*
X8923810Y-9289810D01*
X8923810Y-9289810D02*
X8828572Y-9308857D01*
X9000000Y-9366000D02*
X9019048Y-9375524D01*
X9019048Y-9375524D02*
X9057143Y-9375524D01*
X9057143Y-9375524D02*
X9076191Y-9366000D01*
X9076191Y-9366000D02*
X9085715Y-9346952D01*
X9085715Y-9346952D02*
X9085715Y-9337429D01*
X9085715Y-9337429D02*
X9076191Y-9318381D01*
X9076191Y-9318381D02*
X9057143Y-9308857D01*
X9057143Y-9308857D02*
X9028572Y-9308857D01*
X9028572Y-9308857D02*
X9009524Y-9299333D01*
X9009524Y-9299333D02*
X9000000Y-9280286D01*
X9000000Y-9280286D02*
X9000000Y-9270762D01*
X9000000Y-9270762D02*
X9009524Y-9251714D01*
X9009524Y-9251714D02*
X9028572Y-9242190D01*
X9028572Y-9242190D02*
X9057143Y-9242190D01*
X9057143Y-9242190D02*
X9076191Y-9251714D01*
X9152381Y-9451714D02*
X9161905Y-9442190D01*
X9161905Y-9442190D02*
X9180953Y-9413619D01*
X9180953Y-9413619D02*
X9190477Y-9394571D01*
X9190477Y-9394571D02*
X9200000Y-9366000D01*
X9200000Y-9366000D02*
X9209524Y-9318381D01*
X9209524Y-9318381D02*
X9209524Y-9280286D01*
X9209524Y-9280286D02*
X9200000Y-9232667D01*
X9200000Y-9232667D02*
X9190477Y-9204095D01*
X9190477Y-9204095D02*
X9180953Y-9185048D01*
X9180953Y-9185048D02*
X9161905Y-9156476D01*
X9161905Y-9156476D02*
X9152381Y-9146952D01*
X4170711Y-9617711D02*
X4170711Y-9476289D01*
X4029289Y-9476289D01*
X4029289Y-9617711D01*
X4170711Y-9617711D01*
X4438095Y-9458571D02*
X4447619Y-9449048D01*
X4447619Y-9449048D02*
X4466667Y-9439524D01*
X4466667Y-9439524D02*
X4514286Y-9439524D01*
X4514286Y-9439524D02*
X4533333Y-9449048D01*
X4533333Y-9449048D02*
X4542857Y-9458571D01*
X4542857Y-9458571D02*
X4552381Y-9477619D01*
X4552381Y-9477619D02*
X4552381Y-9496667D01*
X4552381Y-9496667D02*
X4542857Y-9525238D01*
X4542857Y-9525238D02*
X4428571Y-9639524D01*
X4428571Y-9639524D02*
X4552381Y-9639524D01*
X4638095Y-9620476D02*
X4647619Y-9630000D01*
X4647619Y-9630000D02*
X4638095Y-9639524D01*
X4638095Y-9639524D02*
X4628571Y-9630000D01*
X4628571Y-9630000D02*
X4638095Y-9620476D01*
X4638095Y-9620476D02*
X4638095Y-9639524D01*
X4838095Y-9639524D02*
X4723810Y-9639524D01*
X4780952Y-9639524D02*
X4780952Y-9439524D01*
X4780952Y-9439524D02*
X4761905Y-9468095D01*
X4761905Y-9468095D02*
X4742857Y-9487143D01*
X4742857Y-9487143D02*
X4723810Y-9496667D01*
X4952381Y-9525238D02*
X4933333Y-9515714D01*
X4933333Y-9515714D02*
X4923810Y-9506190D01*
X4923810Y-9506190D02*
X4914286Y-9487143D01*
X4914286Y-9487143D02*
X4914286Y-9477619D01*
X4914286Y-9477619D02*
X4923810Y-9458571D01*
X4923810Y-9458571D02*
X4933333Y-9449048D01*
X4933333Y-9449048D02*
X4952381Y-9439524D01*
X4952381Y-9439524D02*
X4990476Y-9439524D01*
X4990476Y-9439524D02*
X5009524Y-9449048D01*
X5009524Y-9449048D02*
X5019048Y-9458571D01*
X5019048Y-9458571D02*
X5028571Y-9477619D01*
X5028571Y-9477619D02*
X5028571Y-9487143D01*
X5028571Y-9487143D02*
X5019048Y-9506190D01*
X5019048Y-9506190D02*
X5009524Y-9515714D01*
X5009524Y-9515714D02*
X4990476Y-9525238D01*
X4990476Y-9525238D02*
X4952381Y-9525238D01*
X4952381Y-9525238D02*
X4933333Y-9534762D01*
X4933333Y-9534762D02*
X4923810Y-9544286D01*
X4923810Y-9544286D02*
X4914286Y-9563333D01*
X4914286Y-9563333D02*
X4914286Y-9601429D01*
X4914286Y-9601429D02*
X4923810Y-9620476D01*
X4923810Y-9620476D02*
X4933333Y-9630000D01*
X4933333Y-9630000D02*
X4952381Y-9639524D01*
X4952381Y-9639524D02*
X4990476Y-9639524D01*
X4990476Y-9639524D02*
X5009524Y-9630000D01*
X5009524Y-9630000D02*
X5019048Y-9620476D01*
X5019048Y-9620476D02*
X5028571Y-9601429D01*
X5028571Y-9601429D02*
X5028571Y-9563333D01*
X5028571Y-9563333D02*
X5019048Y-9544286D01*
X5019048Y-9544286D02*
X5009524Y-9534762D01*
X5009524Y-9534762D02*
X4990476Y-9525238D01*
X5152381Y-9439524D02*
X5171429Y-9439524D01*
X5171429Y-9439524D02*
X5190476Y-9449048D01*
X5190476Y-9449048D02*
X5200000Y-9458571D01*
X5200000Y-9458571D02*
X5209524Y-9477619D01*
X5209524Y-9477619D02*
X5219048Y-9515714D01*
X5219048Y-9515714D02*
X5219048Y-9563333D01*
X5219048Y-9563333D02*
X5209524Y-9601429D01*
X5209524Y-9601429D02*
X5200000Y-9620476D01*
X5200000Y-9620476D02*
X5190476Y-9630000D01*
X5190476Y-9630000D02*
X5171429Y-9639524D01*
X5171429Y-9639524D02*
X5152381Y-9639524D01*
X5152381Y-9639524D02*
X5133333Y-9630000D01*
X5133333Y-9630000D02*
X5123810Y-9620476D01*
X5123810Y-9620476D02*
X5114286Y-9601429D01*
X5114286Y-9601429D02*
X5104762Y-9563333D01*
X5104762Y-9563333D02*
X5104762Y-9515714D01*
X5104762Y-9515714D02*
X5114286Y-9477619D01*
X5114286Y-9477619D02*
X5123810Y-9458571D01*
X5123810Y-9458571D02*
X5133333Y-9449048D01*
X5133333Y-9449048D02*
X5152381Y-9439524D01*
X5304762Y-9639524D02*
X5304762Y-9506190D01*
X5304762Y-9525238D02*
X5314286Y-9515714D01*
X5314286Y-9515714D02*
X5333333Y-9506190D01*
X5333333Y-9506190D02*
X5361905Y-9506190D01*
X5361905Y-9506190D02*
X5380952Y-9515714D01*
X5380952Y-9515714D02*
X5390476Y-9534762D01*
X5390476Y-9534762D02*
X5390476Y-9639524D01*
X5390476Y-9534762D02*
X5400000Y-9515714D01*
X5400000Y-9515714D02*
X5419048Y-9506190D01*
X5419048Y-9506190D02*
X5447619Y-9506190D01*
X5447619Y-9506190D02*
X5466667Y-9515714D01*
X5466667Y-9515714D02*
X5476191Y-9534762D01*
X5476191Y-9534762D02*
X5476191Y-9639524D01*
X5571429Y-9639524D02*
X5571429Y-9506190D01*
X5571429Y-9525238D02*
X5580952Y-9515714D01*
X5580952Y-9515714D02*
X5600000Y-9506190D01*
X5600000Y-9506190D02*
X5628571Y-9506190D01*
X5628571Y-9506190D02*
X5647619Y-9515714D01*
X5647619Y-9515714D02*
X5657143Y-9534762D01*
X5657143Y-9534762D02*
X5657143Y-9639524D01*
X5657143Y-9534762D02*
X5666667Y-9515714D01*
X5666667Y-9515714D02*
X5685714Y-9506190D01*
X5685714Y-9506190D02*
X5714286Y-9506190D01*
X5714286Y-9506190D02*
X5733333Y-9515714D01*
X5733333Y-9515714D02*
X5742857Y-9534762D01*
X5742857Y-9534762D02*
X5742857Y-9639524D01*
X6133333Y-9430000D02*
X5961905Y-9687143D01*
X6390476Y-9439524D02*
X6409524Y-9439524D01*
X6409524Y-9439524D02*
X6428572Y-9449048D01*
X6428572Y-9449048D02*
X6438095Y-9458571D01*
X6438095Y-9458571D02*
X6447619Y-9477619D01*
X6447619Y-9477619D02*
X6457143Y-9515714D01*
X6457143Y-9515714D02*
X6457143Y-9563333D01*
X6457143Y-9563333D02*
X6447619Y-9601429D01*
X6447619Y-9601429D02*
X6438095Y-9620476D01*
X6438095Y-9620476D02*
X6428572Y-9630000D01*
X6428572Y-9630000D02*
X6409524Y-9639524D01*
X6409524Y-9639524D02*
X6390476Y-9639524D01*
X6390476Y-9639524D02*
X6371429Y-9630000D01*
X6371429Y-9630000D02*
X6361905Y-9620476D01*
X6361905Y-9620476D02*
X6352381Y-9601429D01*
X6352381Y-9601429D02*
X6342857Y-9563333D01*
X6342857Y-9563333D02*
X6342857Y-9515714D01*
X6342857Y-9515714D02*
X6352381Y-9477619D01*
X6352381Y-9477619D02*
X6361905Y-9458571D01*
X6361905Y-9458571D02*
X6371429Y-9449048D01*
X6371429Y-9449048D02*
X6390476Y-9439524D01*
X6542857Y-9620476D02*
X6552381Y-9630000D01*
X6552381Y-9630000D02*
X6542857Y-9639524D01*
X6542857Y-9639524D02*
X6533333Y-9630000D01*
X6533333Y-9630000D02*
X6542857Y-9620476D01*
X6542857Y-9620476D02*
X6542857Y-9639524D01*
X6676191Y-9439524D02*
X6695238Y-9439524D01*
X6695238Y-9439524D02*
X6714286Y-9449048D01*
X6714286Y-9449048D02*
X6723810Y-9458571D01*
X6723810Y-9458571D02*
X6733333Y-9477619D01*
X6733333Y-9477619D02*
X6742857Y-9515714D01*
X6742857Y-9515714D02*
X6742857Y-9563333D01*
X6742857Y-9563333D02*
X6733333Y-9601429D01*
X6733333Y-9601429D02*
X6723810Y-9620476D01*
X6723810Y-9620476D02*
X6714286Y-9630000D01*
X6714286Y-9630000D02*
X6695238Y-9639524D01*
X6695238Y-9639524D02*
X6676191Y-9639524D01*
X6676191Y-9639524D02*
X6657143Y-9630000D01*
X6657143Y-9630000D02*
X6647619Y-9620476D01*
X6647619Y-9620476D02*
X6638095Y-9601429D01*
X6638095Y-9601429D02*
X6628572Y-9563333D01*
X6628572Y-9563333D02*
X6628572Y-9515714D01*
X6628572Y-9515714D02*
X6638095Y-9477619D01*
X6638095Y-9477619D02*
X6647619Y-9458571D01*
X6647619Y-9458571D02*
X6657143Y-9449048D01*
X6657143Y-9449048D02*
X6676191Y-9439524D01*
X6857143Y-9525238D02*
X6838095Y-9515714D01*
X6838095Y-9515714D02*
X6828572Y-9506190D01*
X6828572Y-9506190D02*
X6819048Y-9487143D01*
X6819048Y-9487143D02*
X6819048Y-9477619D01*
X6819048Y-9477619D02*
X6828572Y-9458571D01*
X6828572Y-9458571D02*
X6838095Y-9449048D01*
X6838095Y-9449048D02*
X6857143Y-9439524D01*
X6857143Y-9439524D02*
X6895238Y-9439524D01*
X6895238Y-9439524D02*
X6914286Y-9449048D01*
X6914286Y-9449048D02*
X6923810Y-9458571D01*
X6923810Y-9458571D02*
X6933333Y-9477619D01*
X6933333Y-9477619D02*
X6933333Y-9487143D01*
X6933333Y-9487143D02*
X6923810Y-9506190D01*
X6923810Y-9506190D02*
X6914286Y-9515714D01*
X6914286Y-9515714D02*
X6895238Y-9525238D01*
X6895238Y-9525238D02*
X6857143Y-9525238D01*
X6857143Y-9525238D02*
X6838095Y-9534762D01*
X6838095Y-9534762D02*
X6828572Y-9544286D01*
X6828572Y-9544286D02*
X6819048Y-9563333D01*
X6819048Y-9563333D02*
X6819048Y-9601429D01*
X6819048Y-9601429D02*
X6828572Y-9620476D01*
X6828572Y-9620476D02*
X6838095Y-9630000D01*
X6838095Y-9630000D02*
X6857143Y-9639524D01*
X6857143Y-9639524D02*
X6895238Y-9639524D01*
X6895238Y-9639524D02*
X6914286Y-9630000D01*
X6914286Y-9630000D02*
X6923810Y-9620476D01*
X6923810Y-9620476D02*
X6933333Y-9601429D01*
X6933333Y-9601429D02*
X6933333Y-9563333D01*
X6933333Y-9563333D02*
X6923810Y-9544286D01*
X6923810Y-9544286D02*
X6914286Y-9534762D01*
X6914286Y-9534762D02*
X6895238Y-9525238D01*
X7114286Y-9439524D02*
X7019048Y-9439524D01*
X7019048Y-9439524D02*
X7009524Y-9534762D01*
X7009524Y-9534762D02*
X7019048Y-9525238D01*
X7019048Y-9525238D02*
X7038095Y-9515714D01*
X7038095Y-9515714D02*
X7085714Y-9515714D01*
X7085714Y-9515714D02*
X7104762Y-9525238D01*
X7104762Y-9525238D02*
X7114286Y-9534762D01*
X7114286Y-9534762D02*
X7123810Y-9553810D01*
X7123810Y-9553810D02*
X7123810Y-9601429D01*
X7123810Y-9601429D02*
X7114286Y-9620476D01*
X7114286Y-9620476D02*
X7104762Y-9630000D01*
X7104762Y-9630000D02*
X7085714Y-9639524D01*
X7085714Y-9639524D02*
X7038095Y-9639524D01*
X7038095Y-9639524D02*
X7019048Y-9630000D01*
X7019048Y-9630000D02*
X7009524Y-9620476D01*
X7238095Y-9525238D02*
X7219048Y-9515714D01*
X7219048Y-9515714D02*
X7209524Y-9506190D01*
X7209524Y-9506190D02*
X7200000Y-9487143D01*
X7200000Y-9487143D02*
X7200000Y-9477619D01*
X7200000Y-9477619D02*
X7209524Y-9458571D01*
X7209524Y-9458571D02*
X7219048Y-9449048D01*
X7219048Y-9449048D02*
X7238095Y-9439524D01*
X7238095Y-9439524D02*
X7276191Y-9439524D01*
X7276191Y-9439524D02*
X7295238Y-9449048D01*
X7295238Y-9449048D02*
X7304762Y-9458571D01*
X7304762Y-9458571D02*
X7314286Y-9477619D01*
X7314286Y-9477619D02*
X7314286Y-9487143D01*
X7314286Y-9487143D02*
X7304762Y-9506190D01*
X7304762Y-9506190D02*
X7295238Y-9515714D01*
X7295238Y-9515714D02*
X7276191Y-9525238D01*
X7276191Y-9525238D02*
X7238095Y-9525238D01*
X7238095Y-9525238D02*
X7219048Y-9534762D01*
X7219048Y-9534762D02*
X7209524Y-9544286D01*
X7209524Y-9544286D02*
X7200000Y-9563333D01*
X7200000Y-9563333D02*
X7200000Y-9601429D01*
X7200000Y-9601429D02*
X7209524Y-9620476D01*
X7209524Y-9620476D02*
X7219048Y-9630000D01*
X7219048Y-9630000D02*
X7238095Y-9639524D01*
X7238095Y-9639524D02*
X7276191Y-9639524D01*
X7276191Y-9639524D02*
X7295238Y-9630000D01*
X7295238Y-9630000D02*
X7304762Y-9620476D01*
X7304762Y-9620476D02*
X7314286Y-9601429D01*
X7314286Y-9601429D02*
X7314286Y-9563333D01*
X7314286Y-9563333D02*
X7304762Y-9544286D01*
X7304762Y-9544286D02*
X7295238Y-9534762D01*
X7295238Y-9534762D02*
X7276191Y-9525238D01*
X7390476Y-9439524D02*
X7390476Y-9477619D01*
X7466667Y-9439524D02*
X7466667Y-9477619D01*
X7761905Y-9715714D02*
X7752381Y-9706190D01*
X7752381Y-9706190D02*
X7733334Y-9677619D01*
X7733334Y-9677619D02*
X7723810Y-9658571D01*
X7723810Y-9658571D02*
X7714286Y-9630000D01*
X7714286Y-9630000D02*
X7704762Y-9582381D01*
X7704762Y-9582381D02*
X7704762Y-9544286D01*
X7704762Y-9544286D02*
X7714286Y-9496667D01*
X7714286Y-9496667D02*
X7723810Y-9468095D01*
X7723810Y-9468095D02*
X7733334Y-9449048D01*
X7733334Y-9449048D02*
X7752381Y-9420476D01*
X7752381Y-9420476D02*
X7761905Y-9410952D01*
X7828572Y-9458571D02*
X7838095Y-9449048D01*
X7838095Y-9449048D02*
X7857143Y-9439524D01*
X7857143Y-9439524D02*
X7904762Y-9439524D01*
X7904762Y-9439524D02*
X7923810Y-9449048D01*
X7923810Y-9449048D02*
X7933334Y-9458571D01*
X7933334Y-9458571D02*
X7942857Y-9477619D01*
X7942857Y-9477619D02*
X7942857Y-9496667D01*
X7942857Y-9496667D02*
X7933334Y-9525238D01*
X7933334Y-9525238D02*
X7819048Y-9639524D01*
X7819048Y-9639524D02*
X7942857Y-9639524D01*
X8180953Y-9639524D02*
X8180953Y-9439524D01*
X8266667Y-9639524D02*
X8266667Y-9534762D01*
X8266667Y-9534762D02*
X8257143Y-9515714D01*
X8257143Y-9515714D02*
X8238096Y-9506190D01*
X8238096Y-9506190D02*
X8209524Y-9506190D01*
X8209524Y-9506190D02*
X8190476Y-9515714D01*
X8190476Y-9515714D02*
X8180953Y-9525238D01*
X8390477Y-9639524D02*
X8371429Y-9630000D01*
X8371429Y-9630000D02*
X8361905Y-9620476D01*
X8361905Y-9620476D02*
X8352381Y-9601429D01*
X8352381Y-9601429D02*
X8352381Y-9544286D01*
X8352381Y-9544286D02*
X8361905Y-9525238D01*
X8361905Y-9525238D02*
X8371429Y-9515714D01*
X8371429Y-9515714D02*
X8390477Y-9506190D01*
X8390477Y-9506190D02*
X8419048Y-9506190D01*
X8419048Y-9506190D02*
X8438096Y-9515714D01*
X8438096Y-9515714D02*
X8447619Y-9525238D01*
X8447619Y-9525238D02*
X8457143Y-9544286D01*
X8457143Y-9544286D02*
X8457143Y-9601429D01*
X8457143Y-9601429D02*
X8447619Y-9620476D01*
X8447619Y-9620476D02*
X8438096Y-9630000D01*
X8438096Y-9630000D02*
X8419048Y-9639524D01*
X8419048Y-9639524D02*
X8390477Y-9639524D01*
X8571429Y-9639524D02*
X8552381Y-9630000D01*
X8552381Y-9630000D02*
X8542858Y-9610952D01*
X8542858Y-9610952D02*
X8542858Y-9439524D01*
X8723810Y-9630000D02*
X8704762Y-9639524D01*
X8704762Y-9639524D02*
X8666667Y-9639524D01*
X8666667Y-9639524D02*
X8647619Y-9630000D01*
X8647619Y-9630000D02*
X8638096Y-9610952D01*
X8638096Y-9610952D02*
X8638096Y-9534762D01*
X8638096Y-9534762D02*
X8647619Y-9515714D01*
X8647619Y-9515714D02*
X8666667Y-9506190D01*
X8666667Y-9506190D02*
X8704762Y-9506190D01*
X8704762Y-9506190D02*
X8723810Y-9515714D01*
X8723810Y-9515714D02*
X8733334Y-9534762D01*
X8733334Y-9534762D02*
X8733334Y-9553810D01*
X8733334Y-9553810D02*
X8638096Y-9572857D01*
X8809524Y-9630000D02*
X8828572Y-9639524D01*
X8828572Y-9639524D02*
X8866667Y-9639524D01*
X8866667Y-9639524D02*
X8885715Y-9630000D01*
X8885715Y-9630000D02*
X8895239Y-9610952D01*
X8895239Y-9610952D02*
X8895239Y-9601429D01*
X8895239Y-9601429D02*
X8885715Y-9582381D01*
X8885715Y-9582381D02*
X8866667Y-9572857D01*
X8866667Y-9572857D02*
X8838096Y-9572857D01*
X8838096Y-9572857D02*
X8819048Y-9563333D01*
X8819048Y-9563333D02*
X8809524Y-9544286D01*
X8809524Y-9544286D02*
X8809524Y-9534762D01*
X8809524Y-9534762D02*
X8819048Y-9515714D01*
X8819048Y-9515714D02*
X8838096Y-9506190D01*
X8838096Y-9506190D02*
X8866667Y-9506190D01*
X8866667Y-9506190D02*
X8885715Y-9515714D01*
X8961905Y-9715714D02*
X8971429Y-9706190D01*
X8971429Y-9706190D02*
X8990477Y-9677619D01*
X8990477Y-9677619D02*
X9000000Y-9658571D01*
X9000000Y-9658571D02*
X9009524Y-9630000D01*
X9009524Y-9630000D02*
X9019048Y-9582381D01*
X9019048Y-9582381D02*
X9019048Y-9544286D01*
X9019048Y-9544286D02*
X9009524Y-9496667D01*
X9009524Y-9496667D02*
X9000000Y-9468095D01*
X9000000Y-9468095D02*
X8990477Y-9449048D01*
X8990477Y-9449048D02*
X8971429Y-9420476D01*
X8971429Y-9420476D02*
X8961905Y-9410952D01*
M02*
