%TF.GenerationSoftware,KiCad,Pcbnew,7.0.2-0*%
%TF.CreationDate,2024-09-16T13:04:04-04:00*%
%TF.ProjectId,ArduinoSolderChallenge,41726475-696e-46f5-936f-6c6465724368,rev?*%
%TF.SameCoordinates,Original*%
%TF.FileFunction,Soldermask,Bot*%
%TF.FilePolarity,Negative*%
%FSLAX46Y46*%
G04 Gerber Fmt 4.6, Leading zero omitted, Abs format (unit mm)*
G04 Created by KiCad (PCBNEW 7.0.2-0) date 2024-09-16 13:04:04*
%MOMM*%
%LPD*%
G01*
G04 APERTURE LIST*
%ADD10R,1.600000X1.600000*%
%ADD11O,1.600000X1.600000*%
%ADD12C,2.286000*%
%ADD13C,3.400000*%
G04 APERTURE END LIST*
D10*
%TO.C,A1*%
X59300000Y-61990000D03*
D11*
X59300000Y-59450000D03*
X59300000Y-56910000D03*
X59300000Y-54370000D03*
X59300000Y-51830000D03*
X59300000Y-49290000D03*
X59300000Y-46750000D03*
X59300000Y-44210000D03*
X59300000Y-41670000D03*
X59300000Y-39130000D03*
X59300000Y-36590000D03*
X59300000Y-34050000D03*
X59300000Y-31510000D03*
X59300000Y-28970000D03*
X59300000Y-26430000D03*
X44060000Y-26430000D03*
X44060000Y-28970000D03*
X44060000Y-31510000D03*
X44060000Y-34050000D03*
X44060000Y-36590000D03*
X44060000Y-39130000D03*
X44060000Y-41670000D03*
X44060000Y-44210000D03*
X44060000Y-46750000D03*
X44060000Y-49290000D03*
X44060000Y-51830000D03*
X44060000Y-54370000D03*
X44060000Y-56910000D03*
X44060000Y-59450000D03*
X44060000Y-61990000D03*
%TD*%
D12*
%TO.C,D5*%
X69340000Y-44060000D03*
X66800000Y-44060000D03*
%TD*%
%TO.C,D1*%
X69340000Y-56660000D03*
X66800000Y-56660000D03*
%TD*%
%TO.C,R1*%
X81340000Y-56660000D03*
X73720000Y-56660000D03*
%TD*%
%TO.C,R5*%
X81340000Y-44260000D03*
X73720000Y-44260000D03*
%TD*%
%TO.C,R12*%
X67260000Y-22300000D03*
X74880000Y-22300000D03*
%TD*%
%TO.C,R3*%
X81340000Y-50360000D03*
X73720000Y-50360000D03*
%TD*%
D13*
%TO.C,BT1*%
X62250000Y-73750000D03*
X49550000Y-73750000D03*
%TD*%
D12*
%TO.C,R10*%
X67260000Y-28600000D03*
X74880000Y-28600000D03*
%TD*%
%TO.C,D3*%
X69340000Y-50360000D03*
X66800000Y-50360000D03*
%TD*%
%TO.C,R2*%
X81340000Y-53510000D03*
X73720000Y-53510000D03*
%TD*%
%TO.C,D4*%
X69340000Y-47210000D03*
X66800000Y-47210000D03*
%TD*%
%TO.C,R4*%
X81340000Y-47310000D03*
X73720000Y-47310000D03*
%TD*%
%TO.C,R11*%
X74860000Y-25450000D03*
X67240000Y-25450000D03*
%TD*%
%TO.C,D2*%
X69340000Y-53510000D03*
X66800000Y-53510000D03*
%TD*%
M02*
