%TF.GenerationSoftware,KiCad,Pcbnew,7.0.2-0*%
%TF.CreationDate,2024-09-16T13:04:04-04:00*%
%TF.ProjectId,ArduinoSolderChallenge,41726475-696e-46f5-936f-6c6465724368,rev?*%
%TF.SameCoordinates,Original*%
%TF.FileFunction,Soldermask,Top*%
%TF.FilePolarity,Negative*%
%FSLAX46Y46*%
G04 Gerber Fmt 4.6, Leading zero omitted, Abs format (unit mm)*
G04 Created by KiCad (PCBNEW 7.0.2-0) date 2024-09-16 13:04:04*
%MOMM*%
%LPD*%
G01*
G04 APERTURE LIST*
G04 Aperture macros list*
%AMRoundRect*
0 Rectangle with rounded corners*
0 $1 Rounding radius*
0 $2 $3 $4 $5 $6 $7 $8 $9 X,Y pos of 4 corners*
0 Add a 4 corners polygon primitive as box body*
4,1,4,$2,$3,$4,$5,$6,$7,$8,$9,$2,$3,0*
0 Add four circle primitives for the rounded corners*
1,1,$1+$1,$2,$3*
1,1,$1+$1,$4,$5*
1,1,$1+$1,$6,$7*
1,1,$1+$1,$8,$9*
0 Add four rect primitives between the rounded corners*
20,1,$1+$1,$2,$3,$4,$5,0*
20,1,$1+$1,$4,$5,$6,$7,0*
20,1,$1+$1,$6,$7,$8,$9,0*
20,1,$1+$1,$8,$9,$2,$3,0*%
G04 Aperture macros list end*
%ADD10R,1.600000X1.600000*%
%ADD11O,1.600000X1.600000*%
%ADD12C,2.286000*%
%ADD13RoundRect,0.250000X0.400000X0.625000X-0.400000X0.625000X-0.400000X-0.625000X0.400000X-0.625000X0*%
%ADD14RoundRect,0.250001X0.462499X0.624999X-0.462499X0.624999X-0.462499X-0.624999X0.462499X-0.624999X0*%
%ADD15RoundRect,0.250000X-0.400000X-0.625000X0.400000X-0.625000X0.400000X0.625000X-0.400000X0.625000X0*%
%ADD16C,3.400000*%
G04 APERTURE END LIST*
D10*
%TO.C,A1*%
X59300000Y-61990000D03*
D11*
X59300000Y-59450000D03*
X59300000Y-56910000D03*
X59300000Y-54370000D03*
X59300000Y-51830000D03*
X59300000Y-49290000D03*
X59300000Y-46750000D03*
X59300000Y-44210000D03*
X59300000Y-41670000D03*
X59300000Y-39130000D03*
X59300000Y-36590000D03*
X59300000Y-34050000D03*
X59300000Y-31510000D03*
X59300000Y-28970000D03*
X59300000Y-26430000D03*
X44060000Y-26430000D03*
X44060000Y-28970000D03*
X44060000Y-31510000D03*
X44060000Y-34050000D03*
X44060000Y-36590000D03*
X44060000Y-39130000D03*
X44060000Y-41670000D03*
X44060000Y-44210000D03*
X44060000Y-46750000D03*
X44060000Y-49290000D03*
X44060000Y-51830000D03*
X44060000Y-54370000D03*
X44060000Y-56910000D03*
X44060000Y-59450000D03*
X44060000Y-61990000D03*
%TD*%
D12*
%TO.C,D5*%
X69340000Y-44060000D03*
X66800000Y-44060000D03*
%TD*%
%TO.C,D1*%
X69340000Y-56660000D03*
X66800000Y-56660000D03*
%TD*%
%TO.C,R1*%
X81340000Y-56660000D03*
X73720000Y-56660000D03*
%TD*%
D13*
%TO.C,R6*%
X74880000Y-41150000D03*
X71780000Y-41150000D03*
%TD*%
D12*
%TO.C,R5*%
X81340000Y-44260000D03*
X73720000Y-44260000D03*
%TD*%
D14*
%TO.C,D9*%
X68817500Y-33050000D03*
X65842500Y-33050000D03*
%TD*%
D15*
%TO.C,R14*%
X65980000Y-64850000D03*
X69080000Y-64850000D03*
%TD*%
D13*
%TO.C,R13*%
X69080000Y-60750000D03*
X65980000Y-60750000D03*
%TD*%
D14*
%TO.C,D6*%
X68817500Y-41150000D03*
X65842500Y-41150000D03*
%TD*%
D12*
%TO.C,R12*%
X67260000Y-22300000D03*
X74880000Y-22300000D03*
%TD*%
%TO.C,R3*%
X81340000Y-50360000D03*
X73720000Y-50360000D03*
%TD*%
D16*
%TO.C,BT1*%
X62250000Y-73750000D03*
X49550000Y-73750000D03*
%TD*%
D12*
%TO.C,R10*%
X67260000Y-28600000D03*
X74880000Y-28600000D03*
%TD*%
%TO.C,D3*%
X69340000Y-50360000D03*
X66800000Y-50360000D03*
%TD*%
D13*
%TO.C,R7*%
X74880000Y-38450000D03*
X71780000Y-38450000D03*
%TD*%
D12*
%TO.C,R2*%
X81340000Y-53510000D03*
X73720000Y-53510000D03*
%TD*%
%TO.C,D4*%
X69340000Y-47210000D03*
X66800000Y-47210000D03*
%TD*%
D13*
%TO.C,R8*%
X74880000Y-35750000D03*
X71780000Y-35750000D03*
%TD*%
D12*
%TO.C,R4*%
X81340000Y-47310000D03*
X73720000Y-47310000D03*
%TD*%
%TO.C,R11*%
X74860000Y-25450000D03*
X67240000Y-25450000D03*
%TD*%
%TO.C,D2*%
X69340000Y-53510000D03*
X66800000Y-53510000D03*
%TD*%
D14*
%TO.C,D7*%
X68817500Y-38450000D03*
X65842500Y-38450000D03*
%TD*%
D13*
%TO.C,R9*%
X74880000Y-33050000D03*
X71780000Y-33050000D03*
%TD*%
D14*
%TO.C,D8*%
X68817500Y-35750000D03*
X65842500Y-35750000D03*
%TD*%
M02*
