M48
; DRILL file {KiCad 7.0.2-0} date 2024 September 16, Monday 13:04:09
; FORMAT={-:-/ absolute / inch / decimal}
; #@! TF.CreationDate,2024-09-16T13:04:09-04:00
; #@! TF.GenerationSoftware,Kicad,Pcbnew,7.0.2-0
; #@! TF.FileFunction,Plated,1,2,PTH
FMAT,2
INCH
; #@! TA.AperFunction,Plated,PTH,ViaDrill
T1C0.0157
; #@! TA.AperFunction,Plated,PTH,ComponentDrill
T2C0.0300
; #@! TA.AperFunction,Plated,PTH,ComponentDrill
T3C0.0394
; #@! TA.AperFunction,Plated,PTH,ComponentDrill
T4C0.0858
%
G90
G05
T1
X2.1772Y-1.565
T2
X2.6299Y-1.7346
X2.6299Y-1.8587
X2.6299Y-1.9827
X2.6299Y-2.1067
X2.6299Y-2.2307
X2.6472Y-1.002
X2.648Y-0.878
X2.648Y-1.126
X2.7299Y-1.7346
X2.7299Y-1.8587
X2.7299Y-1.9827
X2.7299Y-2.1067
X2.7299Y-2.2307
X2.9024Y-1.7425
X2.9024Y-1.8626
X2.9024Y-1.9827
X2.9024Y-2.1067
X2.9024Y-2.2307
X2.9472Y-1.002
X2.948Y-0.878
X2.948Y-1.126
X3.2024Y-1.7425
X3.2024Y-1.8626
X3.2024Y-1.9827
X3.2024Y-2.1067
X3.2024Y-2.2307
T3
X1.7346Y-1.0406
X1.7346Y-1.1406
X1.7346Y-1.2406
X1.7346Y-1.3406
X1.7346Y-1.4406
X1.7346Y-1.5406
X1.7346Y-1.6406
X1.7346Y-1.7406
X1.7346Y-1.8406
X1.7346Y-1.9406
X1.7346Y-2.0406
X1.7346Y-2.1406
X1.7346Y-2.2406
X1.7346Y-2.3406
X1.7346Y-2.4406
X2.3346Y-1.0406
X2.3346Y-1.1406
X2.3346Y-1.2406
X2.3346Y-1.3406
X2.3346Y-1.4406
X2.3346Y-1.5406
X2.3346Y-1.6406
X2.3346Y-1.7406
X2.3346Y-1.8406
X2.3346Y-1.9406
X2.3346Y-2.0406
X2.3346Y-2.1406
X2.3346Y-2.2406
X2.3346Y-2.3406
X2.3346Y-2.4406
T4
X1.9508Y-2.9035
X2.4508Y-2.9035
T0
M30
