%TF.GenerationSoftware,KiCad,Pcbnew,7.0.2-0*%
%TF.CreationDate,2024-09-16T13:04:04-04:00*%
%TF.ProjectId,ArduinoSolderChallenge,41726475-696e-46f5-936f-6c6465724368,rev?*%
%TF.SameCoordinates,Original*%
%TF.FileFunction,Legend,Top*%
%TF.FilePolarity,Positive*%
%FSLAX46Y46*%
G04 Gerber Fmt 4.6, Leading zero omitted, Abs format (unit mm)*
G04 Created by KiCad (PCBNEW 7.0.2-0) date 2024-09-16 13:04:04*
%MOMM*%
%LPD*%
G01*
G04 APERTURE LIST*
%ADD10C,0.150000*%
%ADD11C,0.120000*%
%ADD12C,0.127000*%
G04 APERTURE END LIST*
D10*
X75471904Y-79609523D02*
X75471904Y-79133333D01*
X75757619Y-79704761D02*
X74757619Y-79371428D01*
X74757619Y-79371428D02*
X75757619Y-79038095D01*
X75757619Y-78704761D02*
X75090952Y-78704761D01*
X75281428Y-78704761D02*
X75186190Y-78657142D01*
X75186190Y-78657142D02*
X75138571Y-78609523D01*
X75138571Y-78609523D02*
X75090952Y-78514285D01*
X75090952Y-78514285D02*
X75090952Y-78419047D01*
X75757619Y-77657142D02*
X74757619Y-77657142D01*
X75710000Y-77657142D02*
X75757619Y-77752380D01*
X75757619Y-77752380D02*
X75757619Y-77942856D01*
X75757619Y-77942856D02*
X75710000Y-78038094D01*
X75710000Y-78038094D02*
X75662380Y-78085713D01*
X75662380Y-78085713D02*
X75567142Y-78133332D01*
X75567142Y-78133332D02*
X75281428Y-78133332D01*
X75281428Y-78133332D02*
X75186190Y-78085713D01*
X75186190Y-78085713D02*
X75138571Y-78038094D01*
X75138571Y-78038094D02*
X75090952Y-77942856D01*
X75090952Y-77942856D02*
X75090952Y-77752380D01*
X75090952Y-77752380D02*
X75138571Y-77657142D01*
X75090952Y-76752380D02*
X75757619Y-76752380D01*
X75090952Y-77180951D02*
X75614761Y-77180951D01*
X75614761Y-77180951D02*
X75710000Y-77133332D01*
X75710000Y-77133332D02*
X75757619Y-77038094D01*
X75757619Y-77038094D02*
X75757619Y-76895237D01*
X75757619Y-76895237D02*
X75710000Y-76799999D01*
X75710000Y-76799999D02*
X75662380Y-76752380D01*
X75757619Y-76276189D02*
X75090952Y-76276189D01*
X74757619Y-76276189D02*
X74805238Y-76323808D01*
X74805238Y-76323808D02*
X74852857Y-76276189D01*
X74852857Y-76276189D02*
X74805238Y-76228570D01*
X74805238Y-76228570D02*
X74757619Y-76276189D01*
X74757619Y-76276189D02*
X74852857Y-76276189D01*
X75090952Y-75799999D02*
X75757619Y-75799999D01*
X75186190Y-75799999D02*
X75138571Y-75752380D01*
X75138571Y-75752380D02*
X75090952Y-75657142D01*
X75090952Y-75657142D02*
X75090952Y-75514285D01*
X75090952Y-75514285D02*
X75138571Y-75419047D01*
X75138571Y-75419047D02*
X75233809Y-75371428D01*
X75233809Y-75371428D02*
X75757619Y-75371428D01*
X75757619Y-74752380D02*
X75710000Y-74847618D01*
X75710000Y-74847618D02*
X75662380Y-74895237D01*
X75662380Y-74895237D02*
X75567142Y-74942856D01*
X75567142Y-74942856D02*
X75281428Y-74942856D01*
X75281428Y-74942856D02*
X75186190Y-74895237D01*
X75186190Y-74895237D02*
X75138571Y-74847618D01*
X75138571Y-74847618D02*
X75090952Y-74752380D01*
X75090952Y-74752380D02*
X75090952Y-74609523D01*
X75090952Y-74609523D02*
X75138571Y-74514285D01*
X75138571Y-74514285D02*
X75186190Y-74466666D01*
X75186190Y-74466666D02*
X75281428Y-74419047D01*
X75281428Y-74419047D02*
X75567142Y-74419047D01*
X75567142Y-74419047D02*
X75662380Y-74466666D01*
X75662380Y-74466666D02*
X75710000Y-74514285D01*
X75710000Y-74514285D02*
X75757619Y-74609523D01*
X75757619Y-74609523D02*
X75757619Y-74752380D01*
X75757619Y-73228570D02*
X74757619Y-73228570D01*
X74757619Y-73228570D02*
X75757619Y-72657142D01*
X75757619Y-72657142D02*
X74757619Y-72657142D01*
X75757619Y-71752380D02*
X75233809Y-71752380D01*
X75233809Y-71752380D02*
X75138571Y-71799999D01*
X75138571Y-71799999D02*
X75090952Y-71895237D01*
X75090952Y-71895237D02*
X75090952Y-72085713D01*
X75090952Y-72085713D02*
X75138571Y-72180951D01*
X75710000Y-71752380D02*
X75757619Y-71847618D01*
X75757619Y-71847618D02*
X75757619Y-72085713D01*
X75757619Y-72085713D02*
X75710000Y-72180951D01*
X75710000Y-72180951D02*
X75614761Y-72228570D01*
X75614761Y-72228570D02*
X75519523Y-72228570D01*
X75519523Y-72228570D02*
X75424285Y-72180951D01*
X75424285Y-72180951D02*
X75376666Y-72085713D01*
X75376666Y-72085713D02*
X75376666Y-71847618D01*
X75376666Y-71847618D02*
X75329047Y-71752380D01*
X75090952Y-71276189D02*
X75757619Y-71276189D01*
X75186190Y-71276189D02*
X75138571Y-71228570D01*
X75138571Y-71228570D02*
X75090952Y-71133332D01*
X75090952Y-71133332D02*
X75090952Y-70990475D01*
X75090952Y-70990475D02*
X75138571Y-70895237D01*
X75138571Y-70895237D02*
X75233809Y-70847618D01*
X75233809Y-70847618D02*
X75757619Y-70847618D01*
X75757619Y-70228570D02*
X75710000Y-70323808D01*
X75710000Y-70323808D02*
X75662380Y-70371427D01*
X75662380Y-70371427D02*
X75567142Y-70419046D01*
X75567142Y-70419046D02*
X75281428Y-70419046D01*
X75281428Y-70419046D02*
X75186190Y-70371427D01*
X75186190Y-70371427D02*
X75138571Y-70323808D01*
X75138571Y-70323808D02*
X75090952Y-70228570D01*
X75090952Y-70228570D02*
X75090952Y-70085713D01*
X75090952Y-70085713D02*
X75138571Y-69990475D01*
X75138571Y-69990475D02*
X75186190Y-69942856D01*
X75186190Y-69942856D02*
X75281428Y-69895237D01*
X75281428Y-69895237D02*
X75567142Y-69895237D01*
X75567142Y-69895237D02*
X75662380Y-69942856D01*
X75662380Y-69942856D02*
X75710000Y-69990475D01*
X75710000Y-69990475D02*
X75757619Y-70085713D01*
X75757619Y-70085713D02*
X75757619Y-70228570D01*
X75710000Y-68752379D02*
X75757619Y-68609522D01*
X75757619Y-68609522D02*
X75757619Y-68371427D01*
X75757619Y-68371427D02*
X75710000Y-68276189D01*
X75710000Y-68276189D02*
X75662380Y-68228570D01*
X75662380Y-68228570D02*
X75567142Y-68180951D01*
X75567142Y-68180951D02*
X75471904Y-68180951D01*
X75471904Y-68180951D02*
X75376666Y-68228570D01*
X75376666Y-68228570D02*
X75329047Y-68276189D01*
X75329047Y-68276189D02*
X75281428Y-68371427D01*
X75281428Y-68371427D02*
X75233809Y-68561903D01*
X75233809Y-68561903D02*
X75186190Y-68657141D01*
X75186190Y-68657141D02*
X75138571Y-68704760D01*
X75138571Y-68704760D02*
X75043333Y-68752379D01*
X75043333Y-68752379D02*
X74948095Y-68752379D01*
X74948095Y-68752379D02*
X74852857Y-68704760D01*
X74852857Y-68704760D02*
X74805238Y-68657141D01*
X74805238Y-68657141D02*
X74757619Y-68561903D01*
X74757619Y-68561903D02*
X74757619Y-68323808D01*
X74757619Y-68323808D02*
X74805238Y-68180951D01*
X75757619Y-67609522D02*
X75710000Y-67704760D01*
X75710000Y-67704760D02*
X75662380Y-67752379D01*
X75662380Y-67752379D02*
X75567142Y-67799998D01*
X75567142Y-67799998D02*
X75281428Y-67799998D01*
X75281428Y-67799998D02*
X75186190Y-67752379D01*
X75186190Y-67752379D02*
X75138571Y-67704760D01*
X75138571Y-67704760D02*
X75090952Y-67609522D01*
X75090952Y-67609522D02*
X75090952Y-67466665D01*
X75090952Y-67466665D02*
X75138571Y-67371427D01*
X75138571Y-67371427D02*
X75186190Y-67323808D01*
X75186190Y-67323808D02*
X75281428Y-67276189D01*
X75281428Y-67276189D02*
X75567142Y-67276189D01*
X75567142Y-67276189D02*
X75662380Y-67323808D01*
X75662380Y-67323808D02*
X75710000Y-67371427D01*
X75710000Y-67371427D02*
X75757619Y-67466665D01*
X75757619Y-67466665D02*
X75757619Y-67609522D01*
X75757619Y-66704760D02*
X75710000Y-66799998D01*
X75710000Y-66799998D02*
X75614761Y-66847617D01*
X75614761Y-66847617D02*
X74757619Y-66847617D01*
X75757619Y-65895236D02*
X74757619Y-65895236D01*
X75710000Y-65895236D02*
X75757619Y-65990474D01*
X75757619Y-65990474D02*
X75757619Y-66180950D01*
X75757619Y-66180950D02*
X75710000Y-66276188D01*
X75710000Y-66276188D02*
X75662380Y-66323807D01*
X75662380Y-66323807D02*
X75567142Y-66371426D01*
X75567142Y-66371426D02*
X75281428Y-66371426D01*
X75281428Y-66371426D02*
X75186190Y-66323807D01*
X75186190Y-66323807D02*
X75138571Y-66276188D01*
X75138571Y-66276188D02*
X75090952Y-66180950D01*
X75090952Y-66180950D02*
X75090952Y-65990474D01*
X75090952Y-65990474D02*
X75138571Y-65895236D01*
X75710000Y-65038093D02*
X75757619Y-65133331D01*
X75757619Y-65133331D02*
X75757619Y-65323807D01*
X75757619Y-65323807D02*
X75710000Y-65419045D01*
X75710000Y-65419045D02*
X75614761Y-65466664D01*
X75614761Y-65466664D02*
X75233809Y-65466664D01*
X75233809Y-65466664D02*
X75138571Y-65419045D01*
X75138571Y-65419045D02*
X75090952Y-65323807D01*
X75090952Y-65323807D02*
X75090952Y-65133331D01*
X75090952Y-65133331D02*
X75138571Y-65038093D01*
X75138571Y-65038093D02*
X75233809Y-64990474D01*
X75233809Y-64990474D02*
X75329047Y-64990474D01*
X75329047Y-64990474D02*
X75424285Y-65466664D01*
X75757619Y-64561902D02*
X75090952Y-64561902D01*
X75281428Y-64561902D02*
X75186190Y-64514283D01*
X75186190Y-64514283D02*
X75138571Y-64466664D01*
X75138571Y-64466664D02*
X75090952Y-64371426D01*
X75090952Y-64371426D02*
X75090952Y-64276188D01*
X75662380Y-62609521D02*
X75710000Y-62657140D01*
X75710000Y-62657140D02*
X75757619Y-62799997D01*
X75757619Y-62799997D02*
X75757619Y-62895235D01*
X75757619Y-62895235D02*
X75710000Y-63038092D01*
X75710000Y-63038092D02*
X75614761Y-63133330D01*
X75614761Y-63133330D02*
X75519523Y-63180949D01*
X75519523Y-63180949D02*
X75329047Y-63228568D01*
X75329047Y-63228568D02*
X75186190Y-63228568D01*
X75186190Y-63228568D02*
X74995714Y-63180949D01*
X74995714Y-63180949D02*
X74900476Y-63133330D01*
X74900476Y-63133330D02*
X74805238Y-63038092D01*
X74805238Y-63038092D02*
X74757619Y-62895235D01*
X74757619Y-62895235D02*
X74757619Y-62799997D01*
X74757619Y-62799997D02*
X74805238Y-62657140D01*
X74805238Y-62657140D02*
X74852857Y-62609521D01*
X75757619Y-62180949D02*
X74757619Y-62180949D01*
X75757619Y-61752378D02*
X75233809Y-61752378D01*
X75233809Y-61752378D02*
X75138571Y-61799997D01*
X75138571Y-61799997D02*
X75090952Y-61895235D01*
X75090952Y-61895235D02*
X75090952Y-62038092D01*
X75090952Y-62038092D02*
X75138571Y-62133330D01*
X75138571Y-62133330D02*
X75186190Y-62180949D01*
X75757619Y-60847616D02*
X75233809Y-60847616D01*
X75233809Y-60847616D02*
X75138571Y-60895235D01*
X75138571Y-60895235D02*
X75090952Y-60990473D01*
X75090952Y-60990473D02*
X75090952Y-61180949D01*
X75090952Y-61180949D02*
X75138571Y-61276187D01*
X75710000Y-60847616D02*
X75757619Y-60942854D01*
X75757619Y-60942854D02*
X75757619Y-61180949D01*
X75757619Y-61180949D02*
X75710000Y-61276187D01*
X75710000Y-61276187D02*
X75614761Y-61323806D01*
X75614761Y-61323806D02*
X75519523Y-61323806D01*
X75519523Y-61323806D02*
X75424285Y-61276187D01*
X75424285Y-61276187D02*
X75376666Y-61180949D01*
X75376666Y-61180949D02*
X75376666Y-60942854D01*
X75376666Y-60942854D02*
X75329047Y-60847616D01*
X75757619Y-60228568D02*
X75710000Y-60323806D01*
X75710000Y-60323806D02*
X75614761Y-60371425D01*
X75614761Y-60371425D02*
X74757619Y-60371425D01*
X75757619Y-59704758D02*
X75710000Y-59799996D01*
X75710000Y-59799996D02*
X75614761Y-59847615D01*
X75614761Y-59847615D02*
X74757619Y-59847615D01*
X75710000Y-58942853D02*
X75757619Y-59038091D01*
X75757619Y-59038091D02*
X75757619Y-59228567D01*
X75757619Y-59228567D02*
X75710000Y-59323805D01*
X75710000Y-59323805D02*
X75614761Y-59371424D01*
X75614761Y-59371424D02*
X75233809Y-59371424D01*
X75233809Y-59371424D02*
X75138571Y-59323805D01*
X75138571Y-59323805D02*
X75090952Y-59228567D01*
X75090952Y-59228567D02*
X75090952Y-59038091D01*
X75090952Y-59038091D02*
X75138571Y-58942853D01*
X75138571Y-58942853D02*
X75233809Y-58895234D01*
X75233809Y-58895234D02*
X75329047Y-58895234D01*
X75329047Y-58895234D02*
X75424285Y-59371424D01*
X75090952Y-58466662D02*
X75757619Y-58466662D01*
X75186190Y-58466662D02*
X75138571Y-58419043D01*
X75138571Y-58419043D02*
X75090952Y-58323805D01*
X75090952Y-58323805D02*
X75090952Y-58180948D01*
X75090952Y-58180948D02*
X75138571Y-58085710D01*
X75138571Y-58085710D02*
X75233809Y-58038091D01*
X75233809Y-58038091D02*
X75757619Y-58038091D01*
X75090952Y-57133329D02*
X75900476Y-57133329D01*
X75900476Y-57133329D02*
X75995714Y-57180948D01*
X75995714Y-57180948D02*
X76043333Y-57228567D01*
X76043333Y-57228567D02*
X76090952Y-57323805D01*
X76090952Y-57323805D02*
X76090952Y-57466662D01*
X76090952Y-57466662D02*
X76043333Y-57561900D01*
X75710000Y-57133329D02*
X75757619Y-57228567D01*
X75757619Y-57228567D02*
X75757619Y-57419043D01*
X75757619Y-57419043D02*
X75710000Y-57514281D01*
X75710000Y-57514281D02*
X75662380Y-57561900D01*
X75662380Y-57561900D02*
X75567142Y-57609519D01*
X75567142Y-57609519D02*
X75281428Y-57609519D01*
X75281428Y-57609519D02*
X75186190Y-57561900D01*
X75186190Y-57561900D02*
X75138571Y-57514281D01*
X75138571Y-57514281D02*
X75090952Y-57419043D01*
X75090952Y-57419043D02*
X75090952Y-57228567D01*
X75090952Y-57228567D02*
X75138571Y-57133329D01*
X75710000Y-56276186D02*
X75757619Y-56371424D01*
X75757619Y-56371424D02*
X75757619Y-56561900D01*
X75757619Y-56561900D02*
X75710000Y-56657138D01*
X75710000Y-56657138D02*
X75614761Y-56704757D01*
X75614761Y-56704757D02*
X75233809Y-56704757D01*
X75233809Y-56704757D02*
X75138571Y-56657138D01*
X75138571Y-56657138D02*
X75090952Y-56561900D01*
X75090952Y-56561900D02*
X75090952Y-56371424D01*
X75090952Y-56371424D02*
X75138571Y-56276186D01*
X75138571Y-56276186D02*
X75233809Y-56228567D01*
X75233809Y-56228567D02*
X75329047Y-56228567D01*
X75329047Y-56228567D02*
X75424285Y-56704757D01*
X77377619Y-79561904D02*
X76710952Y-79561904D01*
X76901428Y-79561904D02*
X76806190Y-79514285D01*
X76806190Y-79514285D02*
X76758571Y-79466666D01*
X76758571Y-79466666D02*
X76710952Y-79371428D01*
X76710952Y-79371428D02*
X76710952Y-79276190D01*
X77330000Y-78561904D02*
X77377619Y-78657142D01*
X77377619Y-78657142D02*
X77377619Y-78847618D01*
X77377619Y-78847618D02*
X77330000Y-78942856D01*
X77330000Y-78942856D02*
X77234761Y-78990475D01*
X77234761Y-78990475D02*
X76853809Y-78990475D01*
X76853809Y-78990475D02*
X76758571Y-78942856D01*
X76758571Y-78942856D02*
X76710952Y-78847618D01*
X76710952Y-78847618D02*
X76710952Y-78657142D01*
X76710952Y-78657142D02*
X76758571Y-78561904D01*
X76758571Y-78561904D02*
X76853809Y-78514285D01*
X76853809Y-78514285D02*
X76949047Y-78514285D01*
X76949047Y-78514285D02*
X77044285Y-78990475D01*
X76710952Y-78180951D02*
X77377619Y-77942856D01*
X77377619Y-77942856D02*
X76710952Y-77704761D01*
X77282380Y-77323808D02*
X77330000Y-77276189D01*
X77330000Y-77276189D02*
X77377619Y-77323808D01*
X77377619Y-77323808D02*
X77330000Y-77371427D01*
X77330000Y-77371427D02*
X77282380Y-77323808D01*
X77282380Y-77323808D02*
X77377619Y-77323808D01*
X76377619Y-75895237D02*
X76377619Y-75799999D01*
X76377619Y-75799999D02*
X76425238Y-75704761D01*
X76425238Y-75704761D02*
X76472857Y-75657142D01*
X76472857Y-75657142D02*
X76568095Y-75609523D01*
X76568095Y-75609523D02*
X76758571Y-75561904D01*
X76758571Y-75561904D02*
X76996666Y-75561904D01*
X76996666Y-75561904D02*
X77187142Y-75609523D01*
X77187142Y-75609523D02*
X77282380Y-75657142D01*
X77282380Y-75657142D02*
X77330000Y-75704761D01*
X77330000Y-75704761D02*
X77377619Y-75799999D01*
X77377619Y-75799999D02*
X77377619Y-75895237D01*
X77377619Y-75895237D02*
X77330000Y-75990475D01*
X77330000Y-75990475D02*
X77282380Y-76038094D01*
X77282380Y-76038094D02*
X77187142Y-76085713D01*
X77187142Y-76085713D02*
X76996666Y-76133332D01*
X76996666Y-76133332D02*
X76758571Y-76133332D01*
X76758571Y-76133332D02*
X76568095Y-76085713D01*
X76568095Y-76085713D02*
X76472857Y-76038094D01*
X76472857Y-76038094D02*
X76425238Y-75990475D01*
X76425238Y-75990475D02*
X76377619Y-75895237D01*
X77377619Y-74609523D02*
X77377619Y-75180951D01*
X77377619Y-74895237D02*
X76377619Y-74895237D01*
X76377619Y-74895237D02*
X76520476Y-74990475D01*
X76520476Y-74990475D02*
X76615714Y-75085713D01*
X76615714Y-75085713D02*
X76663333Y-75180951D01*
X76330000Y-73466666D02*
X77615714Y-74323808D01*
X76472857Y-73180951D02*
X76425238Y-73133332D01*
X76425238Y-73133332D02*
X76377619Y-73038094D01*
X76377619Y-73038094D02*
X76377619Y-72799999D01*
X76377619Y-72799999D02*
X76425238Y-72704761D01*
X76425238Y-72704761D02*
X76472857Y-72657142D01*
X76472857Y-72657142D02*
X76568095Y-72609523D01*
X76568095Y-72609523D02*
X76663333Y-72609523D01*
X76663333Y-72609523D02*
X76806190Y-72657142D01*
X76806190Y-72657142D02*
X77377619Y-73228570D01*
X77377619Y-73228570D02*
X77377619Y-72609523D01*
X76377619Y-72276189D02*
X76377619Y-71609523D01*
X76377619Y-71609523D02*
X77377619Y-72038094D01*
X76330000Y-70514285D02*
X77615714Y-71371427D01*
X76472857Y-70228570D02*
X76425238Y-70180951D01*
X76425238Y-70180951D02*
X76377619Y-70085713D01*
X76377619Y-70085713D02*
X76377619Y-69847618D01*
X76377619Y-69847618D02*
X76425238Y-69752380D01*
X76425238Y-69752380D02*
X76472857Y-69704761D01*
X76472857Y-69704761D02*
X76568095Y-69657142D01*
X76568095Y-69657142D02*
X76663333Y-69657142D01*
X76663333Y-69657142D02*
X76806190Y-69704761D01*
X76806190Y-69704761D02*
X77377619Y-70276189D01*
X77377619Y-70276189D02*
X77377619Y-69657142D01*
X76377619Y-69038094D02*
X76377619Y-68942856D01*
X76377619Y-68942856D02*
X76425238Y-68847618D01*
X76425238Y-68847618D02*
X76472857Y-68799999D01*
X76472857Y-68799999D02*
X76568095Y-68752380D01*
X76568095Y-68752380D02*
X76758571Y-68704761D01*
X76758571Y-68704761D02*
X76996666Y-68704761D01*
X76996666Y-68704761D02*
X77187142Y-68752380D01*
X77187142Y-68752380D02*
X77282380Y-68799999D01*
X77282380Y-68799999D02*
X77330000Y-68847618D01*
X77330000Y-68847618D02*
X77377619Y-68942856D01*
X77377619Y-68942856D02*
X77377619Y-69038094D01*
X77377619Y-69038094D02*
X77330000Y-69133332D01*
X77330000Y-69133332D02*
X77282380Y-69180951D01*
X77282380Y-69180951D02*
X77187142Y-69228570D01*
X77187142Y-69228570D02*
X76996666Y-69276189D01*
X76996666Y-69276189D02*
X76758571Y-69276189D01*
X76758571Y-69276189D02*
X76568095Y-69228570D01*
X76568095Y-69228570D02*
X76472857Y-69180951D01*
X76472857Y-69180951D02*
X76425238Y-69133332D01*
X76425238Y-69133332D02*
X76377619Y-69038094D01*
X76472857Y-68323808D02*
X76425238Y-68276189D01*
X76425238Y-68276189D02*
X76377619Y-68180951D01*
X76377619Y-68180951D02*
X76377619Y-67942856D01*
X76377619Y-67942856D02*
X76425238Y-67847618D01*
X76425238Y-67847618D02*
X76472857Y-67799999D01*
X76472857Y-67799999D02*
X76568095Y-67752380D01*
X76568095Y-67752380D02*
X76663333Y-67752380D01*
X76663333Y-67752380D02*
X76806190Y-67799999D01*
X76806190Y-67799999D02*
X77377619Y-68371427D01*
X77377619Y-68371427D02*
X77377619Y-67752380D01*
X76710952Y-66895237D02*
X77377619Y-66895237D01*
X76330000Y-67133332D02*
X77044285Y-67371427D01*
X77044285Y-67371427D02*
X77044285Y-66752380D01*
%TO.C,A1*%
X61535714Y-65226904D02*
X62011904Y-65226904D01*
X61440476Y-65512619D02*
X61773809Y-64512619D01*
X61773809Y-64512619D02*
X62107142Y-65512619D01*
X62964285Y-65512619D02*
X62392857Y-65512619D01*
X62678571Y-65512619D02*
X62678571Y-64512619D01*
X62678571Y-64512619D02*
X62583333Y-64655476D01*
X62583333Y-64655476D02*
X62488095Y-64750714D01*
X62488095Y-64750714D02*
X62392857Y-64798333D01*
X52941904Y-26967380D02*
X52941904Y-26157857D01*
X52941904Y-26157857D02*
X52894285Y-26062619D01*
X52894285Y-26062619D02*
X52846666Y-26015000D01*
X52846666Y-26015000D02*
X52751428Y-25967380D01*
X52751428Y-25967380D02*
X52560952Y-25967380D01*
X52560952Y-25967380D02*
X52465714Y-26015000D01*
X52465714Y-26015000D02*
X52418095Y-26062619D01*
X52418095Y-26062619D02*
X52370476Y-26157857D01*
X52370476Y-26157857D02*
X52370476Y-26967380D01*
X51941904Y-26015000D02*
X51799047Y-25967380D01*
X51799047Y-25967380D02*
X51560952Y-25967380D01*
X51560952Y-25967380D02*
X51465714Y-26015000D01*
X51465714Y-26015000D02*
X51418095Y-26062619D01*
X51418095Y-26062619D02*
X51370476Y-26157857D01*
X51370476Y-26157857D02*
X51370476Y-26253095D01*
X51370476Y-26253095D02*
X51418095Y-26348333D01*
X51418095Y-26348333D02*
X51465714Y-26395952D01*
X51465714Y-26395952D02*
X51560952Y-26443571D01*
X51560952Y-26443571D02*
X51751428Y-26491190D01*
X51751428Y-26491190D02*
X51846666Y-26538809D01*
X51846666Y-26538809D02*
X51894285Y-26586428D01*
X51894285Y-26586428D02*
X51941904Y-26681666D01*
X51941904Y-26681666D02*
X51941904Y-26776904D01*
X51941904Y-26776904D02*
X51894285Y-26872142D01*
X51894285Y-26872142D02*
X51846666Y-26919761D01*
X51846666Y-26919761D02*
X51751428Y-26967380D01*
X51751428Y-26967380D02*
X51513333Y-26967380D01*
X51513333Y-26967380D02*
X51370476Y-26919761D01*
X50608571Y-26491190D02*
X50465714Y-26443571D01*
X50465714Y-26443571D02*
X50418095Y-26395952D01*
X50418095Y-26395952D02*
X50370476Y-26300714D01*
X50370476Y-26300714D02*
X50370476Y-26157857D01*
X50370476Y-26157857D02*
X50418095Y-26062619D01*
X50418095Y-26062619D02*
X50465714Y-26015000D01*
X50465714Y-26015000D02*
X50560952Y-25967380D01*
X50560952Y-25967380D02*
X50941904Y-25967380D01*
X50941904Y-25967380D02*
X50941904Y-26967380D01*
X50941904Y-26967380D02*
X50608571Y-26967380D01*
X50608571Y-26967380D02*
X50513333Y-26919761D01*
X50513333Y-26919761D02*
X50465714Y-26872142D01*
X50465714Y-26872142D02*
X50418095Y-26776904D01*
X50418095Y-26776904D02*
X50418095Y-26681666D01*
X50418095Y-26681666D02*
X50465714Y-26586428D01*
X50465714Y-26586428D02*
X50513333Y-26538809D01*
X50513333Y-26538809D02*
X50608571Y-26491190D01*
X50608571Y-26491190D02*
X50941904Y-26491190D01*
%TO.C,D5*%
X63711905Y-44522619D02*
X63711905Y-43522619D01*
X63711905Y-43522619D02*
X63950000Y-43522619D01*
X63950000Y-43522619D02*
X64092857Y-43570238D01*
X64092857Y-43570238D02*
X64188095Y-43665476D01*
X64188095Y-43665476D02*
X64235714Y-43760714D01*
X64235714Y-43760714D02*
X64283333Y-43951190D01*
X64283333Y-43951190D02*
X64283333Y-44094047D01*
X64283333Y-44094047D02*
X64235714Y-44284523D01*
X64235714Y-44284523D02*
X64188095Y-44379761D01*
X64188095Y-44379761D02*
X64092857Y-44475000D01*
X64092857Y-44475000D02*
X63950000Y-44522619D01*
X63950000Y-44522619D02*
X63711905Y-44522619D01*
X65188095Y-43522619D02*
X64711905Y-43522619D01*
X64711905Y-43522619D02*
X64664286Y-43998809D01*
X64664286Y-43998809D02*
X64711905Y-43951190D01*
X64711905Y-43951190D02*
X64807143Y-43903571D01*
X64807143Y-43903571D02*
X65045238Y-43903571D01*
X65045238Y-43903571D02*
X65140476Y-43951190D01*
X65140476Y-43951190D02*
X65188095Y-43998809D01*
X65188095Y-43998809D02*
X65235714Y-44094047D01*
X65235714Y-44094047D02*
X65235714Y-44332142D01*
X65235714Y-44332142D02*
X65188095Y-44427380D01*
X65188095Y-44427380D02*
X65140476Y-44475000D01*
X65140476Y-44475000D02*
X65045238Y-44522619D01*
X65045238Y-44522619D02*
X64807143Y-44522619D01*
X64807143Y-44522619D02*
X64711905Y-44475000D01*
X64711905Y-44475000D02*
X64664286Y-44427380D01*
%TO.C,D1*%
X63861905Y-57122619D02*
X63861905Y-56122619D01*
X63861905Y-56122619D02*
X64100000Y-56122619D01*
X64100000Y-56122619D02*
X64242857Y-56170238D01*
X64242857Y-56170238D02*
X64338095Y-56265476D01*
X64338095Y-56265476D02*
X64385714Y-56360714D01*
X64385714Y-56360714D02*
X64433333Y-56551190D01*
X64433333Y-56551190D02*
X64433333Y-56694047D01*
X64433333Y-56694047D02*
X64385714Y-56884523D01*
X64385714Y-56884523D02*
X64338095Y-56979761D01*
X64338095Y-56979761D02*
X64242857Y-57075000D01*
X64242857Y-57075000D02*
X64100000Y-57122619D01*
X64100000Y-57122619D02*
X63861905Y-57122619D01*
X65385714Y-57122619D02*
X64814286Y-57122619D01*
X65100000Y-57122619D02*
X65100000Y-56122619D01*
X65100000Y-56122619D02*
X65004762Y-56265476D01*
X65004762Y-56265476D02*
X64909524Y-56360714D01*
X64909524Y-56360714D02*
X64814286Y-56408333D01*
%TO.C,R1*%
X83635333Y-57126619D02*
X83302000Y-56650428D01*
X83063905Y-57126619D02*
X83063905Y-56126619D01*
X83063905Y-56126619D02*
X83444857Y-56126619D01*
X83444857Y-56126619D02*
X83540095Y-56174238D01*
X83540095Y-56174238D02*
X83587714Y-56221857D01*
X83587714Y-56221857D02*
X83635333Y-56317095D01*
X83635333Y-56317095D02*
X83635333Y-56459952D01*
X83635333Y-56459952D02*
X83587714Y-56555190D01*
X83587714Y-56555190D02*
X83540095Y-56602809D01*
X83540095Y-56602809D02*
X83444857Y-56650428D01*
X83444857Y-56650428D02*
X83063905Y-56650428D01*
X84587714Y-57126619D02*
X84016286Y-57126619D01*
X84302000Y-57126619D02*
X84302000Y-56126619D01*
X84302000Y-56126619D02*
X84206762Y-56269476D01*
X84206762Y-56269476D02*
X84111524Y-56364714D01*
X84111524Y-56364714D02*
X84016286Y-56412333D01*
%TO.C,R6*%
X76663333Y-41622619D02*
X76330000Y-41146428D01*
X76091905Y-41622619D02*
X76091905Y-40622619D01*
X76091905Y-40622619D02*
X76472857Y-40622619D01*
X76472857Y-40622619D02*
X76568095Y-40670238D01*
X76568095Y-40670238D02*
X76615714Y-40717857D01*
X76615714Y-40717857D02*
X76663333Y-40813095D01*
X76663333Y-40813095D02*
X76663333Y-40955952D01*
X76663333Y-40955952D02*
X76615714Y-41051190D01*
X76615714Y-41051190D02*
X76568095Y-41098809D01*
X76568095Y-41098809D02*
X76472857Y-41146428D01*
X76472857Y-41146428D02*
X76091905Y-41146428D01*
X77520476Y-40622619D02*
X77330000Y-40622619D01*
X77330000Y-40622619D02*
X77234762Y-40670238D01*
X77234762Y-40670238D02*
X77187143Y-40717857D01*
X77187143Y-40717857D02*
X77091905Y-40860714D01*
X77091905Y-40860714D02*
X77044286Y-41051190D01*
X77044286Y-41051190D02*
X77044286Y-41432142D01*
X77044286Y-41432142D02*
X77091905Y-41527380D01*
X77091905Y-41527380D02*
X77139524Y-41575000D01*
X77139524Y-41575000D02*
X77234762Y-41622619D01*
X77234762Y-41622619D02*
X77425238Y-41622619D01*
X77425238Y-41622619D02*
X77520476Y-41575000D01*
X77520476Y-41575000D02*
X77568095Y-41527380D01*
X77568095Y-41527380D02*
X77615714Y-41432142D01*
X77615714Y-41432142D02*
X77615714Y-41194047D01*
X77615714Y-41194047D02*
X77568095Y-41098809D01*
X77568095Y-41098809D02*
X77520476Y-41051190D01*
X77520476Y-41051190D02*
X77425238Y-41003571D01*
X77425238Y-41003571D02*
X77234762Y-41003571D01*
X77234762Y-41003571D02*
X77139524Y-41051190D01*
X77139524Y-41051190D02*
X77091905Y-41098809D01*
X77091905Y-41098809D02*
X77044286Y-41194047D01*
%TO.C,R5*%
X83623333Y-44672619D02*
X83290000Y-44196428D01*
X83051905Y-44672619D02*
X83051905Y-43672619D01*
X83051905Y-43672619D02*
X83432857Y-43672619D01*
X83432857Y-43672619D02*
X83528095Y-43720238D01*
X83528095Y-43720238D02*
X83575714Y-43767857D01*
X83575714Y-43767857D02*
X83623333Y-43863095D01*
X83623333Y-43863095D02*
X83623333Y-44005952D01*
X83623333Y-44005952D02*
X83575714Y-44101190D01*
X83575714Y-44101190D02*
X83528095Y-44148809D01*
X83528095Y-44148809D02*
X83432857Y-44196428D01*
X83432857Y-44196428D02*
X83051905Y-44196428D01*
X84528095Y-43672619D02*
X84051905Y-43672619D01*
X84051905Y-43672619D02*
X84004286Y-44148809D01*
X84004286Y-44148809D02*
X84051905Y-44101190D01*
X84051905Y-44101190D02*
X84147143Y-44053571D01*
X84147143Y-44053571D02*
X84385238Y-44053571D01*
X84385238Y-44053571D02*
X84480476Y-44101190D01*
X84480476Y-44101190D02*
X84528095Y-44148809D01*
X84528095Y-44148809D02*
X84575714Y-44244047D01*
X84575714Y-44244047D02*
X84575714Y-44482142D01*
X84575714Y-44482142D02*
X84528095Y-44577380D01*
X84528095Y-44577380D02*
X84480476Y-44625000D01*
X84480476Y-44625000D02*
X84385238Y-44672619D01*
X84385238Y-44672619D02*
X84147143Y-44672619D01*
X84147143Y-44672619D02*
X84051905Y-44625000D01*
X84051905Y-44625000D02*
X84004286Y-44577380D01*
%TO.C,D9*%
X62941905Y-33512619D02*
X62941905Y-32512619D01*
X62941905Y-32512619D02*
X63180000Y-32512619D01*
X63180000Y-32512619D02*
X63322857Y-32560238D01*
X63322857Y-32560238D02*
X63418095Y-32655476D01*
X63418095Y-32655476D02*
X63465714Y-32750714D01*
X63465714Y-32750714D02*
X63513333Y-32941190D01*
X63513333Y-32941190D02*
X63513333Y-33084047D01*
X63513333Y-33084047D02*
X63465714Y-33274523D01*
X63465714Y-33274523D02*
X63418095Y-33369761D01*
X63418095Y-33369761D02*
X63322857Y-33465000D01*
X63322857Y-33465000D02*
X63180000Y-33512619D01*
X63180000Y-33512619D02*
X62941905Y-33512619D01*
X63989524Y-33512619D02*
X64180000Y-33512619D01*
X64180000Y-33512619D02*
X64275238Y-33465000D01*
X64275238Y-33465000D02*
X64322857Y-33417380D01*
X64322857Y-33417380D02*
X64418095Y-33274523D01*
X64418095Y-33274523D02*
X64465714Y-33084047D01*
X64465714Y-33084047D02*
X64465714Y-32703095D01*
X64465714Y-32703095D02*
X64418095Y-32607857D01*
X64418095Y-32607857D02*
X64370476Y-32560238D01*
X64370476Y-32560238D02*
X64275238Y-32512619D01*
X64275238Y-32512619D02*
X64084762Y-32512619D01*
X64084762Y-32512619D02*
X63989524Y-32560238D01*
X63989524Y-32560238D02*
X63941905Y-32607857D01*
X63941905Y-32607857D02*
X63894286Y-32703095D01*
X63894286Y-32703095D02*
X63894286Y-32941190D01*
X63894286Y-32941190D02*
X63941905Y-33036428D01*
X63941905Y-33036428D02*
X63989524Y-33084047D01*
X63989524Y-33084047D02*
X64084762Y-33131666D01*
X64084762Y-33131666D02*
X64275238Y-33131666D01*
X64275238Y-33131666D02*
X64370476Y-33084047D01*
X64370476Y-33084047D02*
X64418095Y-33036428D01*
X64418095Y-33036428D02*
X64465714Y-32941190D01*
%TO.C,R14*%
X66887142Y-67112619D02*
X66553809Y-66636428D01*
X66315714Y-67112619D02*
X66315714Y-66112619D01*
X66315714Y-66112619D02*
X66696666Y-66112619D01*
X66696666Y-66112619D02*
X66791904Y-66160238D01*
X66791904Y-66160238D02*
X66839523Y-66207857D01*
X66839523Y-66207857D02*
X66887142Y-66303095D01*
X66887142Y-66303095D02*
X66887142Y-66445952D01*
X66887142Y-66445952D02*
X66839523Y-66541190D01*
X66839523Y-66541190D02*
X66791904Y-66588809D01*
X66791904Y-66588809D02*
X66696666Y-66636428D01*
X66696666Y-66636428D02*
X66315714Y-66636428D01*
X67839523Y-67112619D02*
X67268095Y-67112619D01*
X67553809Y-67112619D02*
X67553809Y-66112619D01*
X67553809Y-66112619D02*
X67458571Y-66255476D01*
X67458571Y-66255476D02*
X67363333Y-66350714D01*
X67363333Y-66350714D02*
X67268095Y-66398333D01*
X68696666Y-66445952D02*
X68696666Y-67112619D01*
X68458571Y-66065000D02*
X68220476Y-66779285D01*
X68220476Y-66779285D02*
X68839523Y-66779285D01*
%TO.C,R13*%
X66887142Y-63032619D02*
X66553809Y-62556428D01*
X66315714Y-63032619D02*
X66315714Y-62032619D01*
X66315714Y-62032619D02*
X66696666Y-62032619D01*
X66696666Y-62032619D02*
X66791904Y-62080238D01*
X66791904Y-62080238D02*
X66839523Y-62127857D01*
X66839523Y-62127857D02*
X66887142Y-62223095D01*
X66887142Y-62223095D02*
X66887142Y-62365952D01*
X66887142Y-62365952D02*
X66839523Y-62461190D01*
X66839523Y-62461190D02*
X66791904Y-62508809D01*
X66791904Y-62508809D02*
X66696666Y-62556428D01*
X66696666Y-62556428D02*
X66315714Y-62556428D01*
X67839523Y-63032619D02*
X67268095Y-63032619D01*
X67553809Y-63032619D02*
X67553809Y-62032619D01*
X67553809Y-62032619D02*
X67458571Y-62175476D01*
X67458571Y-62175476D02*
X67363333Y-62270714D01*
X67363333Y-62270714D02*
X67268095Y-62318333D01*
X68172857Y-62032619D02*
X68791904Y-62032619D01*
X68791904Y-62032619D02*
X68458571Y-62413571D01*
X68458571Y-62413571D02*
X68601428Y-62413571D01*
X68601428Y-62413571D02*
X68696666Y-62461190D01*
X68696666Y-62461190D02*
X68744285Y-62508809D01*
X68744285Y-62508809D02*
X68791904Y-62604047D01*
X68791904Y-62604047D02*
X68791904Y-62842142D01*
X68791904Y-62842142D02*
X68744285Y-62937380D01*
X68744285Y-62937380D02*
X68696666Y-62985000D01*
X68696666Y-62985000D02*
X68601428Y-63032619D01*
X68601428Y-63032619D02*
X68315714Y-63032619D01*
X68315714Y-63032619D02*
X68220476Y-62985000D01*
X68220476Y-62985000D02*
X68172857Y-62937380D01*
%TO.C,D6*%
X62991905Y-41562619D02*
X62991905Y-40562619D01*
X62991905Y-40562619D02*
X63230000Y-40562619D01*
X63230000Y-40562619D02*
X63372857Y-40610238D01*
X63372857Y-40610238D02*
X63468095Y-40705476D01*
X63468095Y-40705476D02*
X63515714Y-40800714D01*
X63515714Y-40800714D02*
X63563333Y-40991190D01*
X63563333Y-40991190D02*
X63563333Y-41134047D01*
X63563333Y-41134047D02*
X63515714Y-41324523D01*
X63515714Y-41324523D02*
X63468095Y-41419761D01*
X63468095Y-41419761D02*
X63372857Y-41515000D01*
X63372857Y-41515000D02*
X63230000Y-41562619D01*
X63230000Y-41562619D02*
X62991905Y-41562619D01*
X64420476Y-40562619D02*
X64230000Y-40562619D01*
X64230000Y-40562619D02*
X64134762Y-40610238D01*
X64134762Y-40610238D02*
X64087143Y-40657857D01*
X64087143Y-40657857D02*
X63991905Y-40800714D01*
X63991905Y-40800714D02*
X63944286Y-40991190D01*
X63944286Y-40991190D02*
X63944286Y-41372142D01*
X63944286Y-41372142D02*
X63991905Y-41467380D01*
X63991905Y-41467380D02*
X64039524Y-41515000D01*
X64039524Y-41515000D02*
X64134762Y-41562619D01*
X64134762Y-41562619D02*
X64325238Y-41562619D01*
X64325238Y-41562619D02*
X64420476Y-41515000D01*
X64420476Y-41515000D02*
X64468095Y-41467380D01*
X64468095Y-41467380D02*
X64515714Y-41372142D01*
X64515714Y-41372142D02*
X64515714Y-41134047D01*
X64515714Y-41134047D02*
X64468095Y-41038809D01*
X64468095Y-41038809D02*
X64420476Y-40991190D01*
X64420476Y-40991190D02*
X64325238Y-40943571D01*
X64325238Y-40943571D02*
X64134762Y-40943571D01*
X64134762Y-40943571D02*
X64039524Y-40991190D01*
X64039524Y-40991190D02*
X63991905Y-41038809D01*
X63991905Y-41038809D02*
X63944286Y-41134047D01*
%TO.C,R12*%
X63627142Y-22712619D02*
X63293809Y-22236428D01*
X63055714Y-22712619D02*
X63055714Y-21712619D01*
X63055714Y-21712619D02*
X63436666Y-21712619D01*
X63436666Y-21712619D02*
X63531904Y-21760238D01*
X63531904Y-21760238D02*
X63579523Y-21807857D01*
X63579523Y-21807857D02*
X63627142Y-21903095D01*
X63627142Y-21903095D02*
X63627142Y-22045952D01*
X63627142Y-22045952D02*
X63579523Y-22141190D01*
X63579523Y-22141190D02*
X63531904Y-22188809D01*
X63531904Y-22188809D02*
X63436666Y-22236428D01*
X63436666Y-22236428D02*
X63055714Y-22236428D01*
X64579523Y-22712619D02*
X64008095Y-22712619D01*
X64293809Y-22712619D02*
X64293809Y-21712619D01*
X64293809Y-21712619D02*
X64198571Y-21855476D01*
X64198571Y-21855476D02*
X64103333Y-21950714D01*
X64103333Y-21950714D02*
X64008095Y-21998333D01*
X64960476Y-21807857D02*
X65008095Y-21760238D01*
X65008095Y-21760238D02*
X65103333Y-21712619D01*
X65103333Y-21712619D02*
X65341428Y-21712619D01*
X65341428Y-21712619D02*
X65436666Y-21760238D01*
X65436666Y-21760238D02*
X65484285Y-21807857D01*
X65484285Y-21807857D02*
X65531904Y-21903095D01*
X65531904Y-21903095D02*
X65531904Y-21998333D01*
X65531904Y-21998333D02*
X65484285Y-22141190D01*
X65484285Y-22141190D02*
X64912857Y-22712619D01*
X64912857Y-22712619D02*
X65531904Y-22712619D01*
%TO.C,R3*%
X83623333Y-50850619D02*
X83290000Y-50374428D01*
X83051905Y-50850619D02*
X83051905Y-49850619D01*
X83051905Y-49850619D02*
X83432857Y-49850619D01*
X83432857Y-49850619D02*
X83528095Y-49898238D01*
X83528095Y-49898238D02*
X83575714Y-49945857D01*
X83575714Y-49945857D02*
X83623333Y-50041095D01*
X83623333Y-50041095D02*
X83623333Y-50183952D01*
X83623333Y-50183952D02*
X83575714Y-50279190D01*
X83575714Y-50279190D02*
X83528095Y-50326809D01*
X83528095Y-50326809D02*
X83432857Y-50374428D01*
X83432857Y-50374428D02*
X83051905Y-50374428D01*
X83956667Y-49850619D02*
X84575714Y-49850619D01*
X84575714Y-49850619D02*
X84242381Y-50231571D01*
X84242381Y-50231571D02*
X84385238Y-50231571D01*
X84385238Y-50231571D02*
X84480476Y-50279190D01*
X84480476Y-50279190D02*
X84528095Y-50326809D01*
X84528095Y-50326809D02*
X84575714Y-50422047D01*
X84575714Y-50422047D02*
X84575714Y-50660142D01*
X84575714Y-50660142D02*
X84528095Y-50755380D01*
X84528095Y-50755380D02*
X84480476Y-50803000D01*
X84480476Y-50803000D02*
X84385238Y-50850619D01*
X84385238Y-50850619D02*
X84099524Y-50850619D01*
X84099524Y-50850619D02*
X84004286Y-50803000D01*
X84004286Y-50803000D02*
X83956667Y-50755380D01*
%TO.C,BT1*%
X43514285Y-67338809D02*
X43657142Y-67386428D01*
X43657142Y-67386428D02*
X43704761Y-67434047D01*
X43704761Y-67434047D02*
X43752380Y-67529285D01*
X43752380Y-67529285D02*
X43752380Y-67672142D01*
X43752380Y-67672142D02*
X43704761Y-67767380D01*
X43704761Y-67767380D02*
X43657142Y-67815000D01*
X43657142Y-67815000D02*
X43561904Y-67862619D01*
X43561904Y-67862619D02*
X43180952Y-67862619D01*
X43180952Y-67862619D02*
X43180952Y-66862619D01*
X43180952Y-66862619D02*
X43514285Y-66862619D01*
X43514285Y-66862619D02*
X43609523Y-66910238D01*
X43609523Y-66910238D02*
X43657142Y-66957857D01*
X43657142Y-66957857D02*
X43704761Y-67053095D01*
X43704761Y-67053095D02*
X43704761Y-67148333D01*
X43704761Y-67148333D02*
X43657142Y-67243571D01*
X43657142Y-67243571D02*
X43609523Y-67291190D01*
X43609523Y-67291190D02*
X43514285Y-67338809D01*
X43514285Y-67338809D02*
X43180952Y-67338809D01*
X44038095Y-66862619D02*
X44609523Y-66862619D01*
X44323809Y-67862619D02*
X44323809Y-66862619D01*
X45466666Y-67862619D02*
X44895238Y-67862619D01*
X45180952Y-67862619D02*
X45180952Y-66862619D01*
X45180952Y-66862619D02*
X45085714Y-67005476D01*
X45085714Y-67005476D02*
X44990476Y-67100714D01*
X44990476Y-67100714D02*
X44895238Y-67148333D01*
%TO.C,R10*%
X63587142Y-29012619D02*
X63253809Y-28536428D01*
X63015714Y-29012619D02*
X63015714Y-28012619D01*
X63015714Y-28012619D02*
X63396666Y-28012619D01*
X63396666Y-28012619D02*
X63491904Y-28060238D01*
X63491904Y-28060238D02*
X63539523Y-28107857D01*
X63539523Y-28107857D02*
X63587142Y-28203095D01*
X63587142Y-28203095D02*
X63587142Y-28345952D01*
X63587142Y-28345952D02*
X63539523Y-28441190D01*
X63539523Y-28441190D02*
X63491904Y-28488809D01*
X63491904Y-28488809D02*
X63396666Y-28536428D01*
X63396666Y-28536428D02*
X63015714Y-28536428D01*
X64539523Y-29012619D02*
X63968095Y-29012619D01*
X64253809Y-29012619D02*
X64253809Y-28012619D01*
X64253809Y-28012619D02*
X64158571Y-28155476D01*
X64158571Y-28155476D02*
X64063333Y-28250714D01*
X64063333Y-28250714D02*
X63968095Y-28298333D01*
X65158571Y-28012619D02*
X65253809Y-28012619D01*
X65253809Y-28012619D02*
X65349047Y-28060238D01*
X65349047Y-28060238D02*
X65396666Y-28107857D01*
X65396666Y-28107857D02*
X65444285Y-28203095D01*
X65444285Y-28203095D02*
X65491904Y-28393571D01*
X65491904Y-28393571D02*
X65491904Y-28631666D01*
X65491904Y-28631666D02*
X65444285Y-28822142D01*
X65444285Y-28822142D02*
X65396666Y-28917380D01*
X65396666Y-28917380D02*
X65349047Y-28965000D01*
X65349047Y-28965000D02*
X65253809Y-29012619D01*
X65253809Y-29012619D02*
X65158571Y-29012619D01*
X65158571Y-29012619D02*
X65063333Y-28965000D01*
X65063333Y-28965000D02*
X65015714Y-28917380D01*
X65015714Y-28917380D02*
X64968095Y-28822142D01*
X64968095Y-28822142D02*
X64920476Y-28631666D01*
X64920476Y-28631666D02*
X64920476Y-28393571D01*
X64920476Y-28393571D02*
X64968095Y-28203095D01*
X64968095Y-28203095D02*
X65015714Y-28107857D01*
X65015714Y-28107857D02*
X65063333Y-28060238D01*
X65063333Y-28060238D02*
X65158571Y-28012619D01*
%TO.C,D3*%
X63751905Y-50822619D02*
X63751905Y-49822619D01*
X63751905Y-49822619D02*
X63990000Y-49822619D01*
X63990000Y-49822619D02*
X64132857Y-49870238D01*
X64132857Y-49870238D02*
X64228095Y-49965476D01*
X64228095Y-49965476D02*
X64275714Y-50060714D01*
X64275714Y-50060714D02*
X64323333Y-50251190D01*
X64323333Y-50251190D02*
X64323333Y-50394047D01*
X64323333Y-50394047D02*
X64275714Y-50584523D01*
X64275714Y-50584523D02*
X64228095Y-50679761D01*
X64228095Y-50679761D02*
X64132857Y-50775000D01*
X64132857Y-50775000D02*
X63990000Y-50822619D01*
X63990000Y-50822619D02*
X63751905Y-50822619D01*
X64656667Y-49822619D02*
X65275714Y-49822619D01*
X65275714Y-49822619D02*
X64942381Y-50203571D01*
X64942381Y-50203571D02*
X65085238Y-50203571D01*
X65085238Y-50203571D02*
X65180476Y-50251190D01*
X65180476Y-50251190D02*
X65228095Y-50298809D01*
X65228095Y-50298809D02*
X65275714Y-50394047D01*
X65275714Y-50394047D02*
X65275714Y-50632142D01*
X65275714Y-50632142D02*
X65228095Y-50727380D01*
X65228095Y-50727380D02*
X65180476Y-50775000D01*
X65180476Y-50775000D02*
X65085238Y-50822619D01*
X65085238Y-50822619D02*
X64799524Y-50822619D01*
X64799524Y-50822619D02*
X64704286Y-50775000D01*
X64704286Y-50775000D02*
X64656667Y-50727380D01*
%TO.C,R7*%
X76663333Y-38912619D02*
X76330000Y-38436428D01*
X76091905Y-38912619D02*
X76091905Y-37912619D01*
X76091905Y-37912619D02*
X76472857Y-37912619D01*
X76472857Y-37912619D02*
X76568095Y-37960238D01*
X76568095Y-37960238D02*
X76615714Y-38007857D01*
X76615714Y-38007857D02*
X76663333Y-38103095D01*
X76663333Y-38103095D02*
X76663333Y-38245952D01*
X76663333Y-38245952D02*
X76615714Y-38341190D01*
X76615714Y-38341190D02*
X76568095Y-38388809D01*
X76568095Y-38388809D02*
X76472857Y-38436428D01*
X76472857Y-38436428D02*
X76091905Y-38436428D01*
X76996667Y-37912619D02*
X77663333Y-37912619D01*
X77663333Y-37912619D02*
X77234762Y-38912619D01*
%TO.C,R2*%
X83603333Y-53950619D02*
X83270000Y-53474428D01*
X83031905Y-53950619D02*
X83031905Y-52950619D01*
X83031905Y-52950619D02*
X83412857Y-52950619D01*
X83412857Y-52950619D02*
X83508095Y-52998238D01*
X83508095Y-52998238D02*
X83555714Y-53045857D01*
X83555714Y-53045857D02*
X83603333Y-53141095D01*
X83603333Y-53141095D02*
X83603333Y-53283952D01*
X83603333Y-53283952D02*
X83555714Y-53379190D01*
X83555714Y-53379190D02*
X83508095Y-53426809D01*
X83508095Y-53426809D02*
X83412857Y-53474428D01*
X83412857Y-53474428D02*
X83031905Y-53474428D01*
X83984286Y-53045857D02*
X84031905Y-52998238D01*
X84031905Y-52998238D02*
X84127143Y-52950619D01*
X84127143Y-52950619D02*
X84365238Y-52950619D01*
X84365238Y-52950619D02*
X84460476Y-52998238D01*
X84460476Y-52998238D02*
X84508095Y-53045857D01*
X84508095Y-53045857D02*
X84555714Y-53141095D01*
X84555714Y-53141095D02*
X84555714Y-53236333D01*
X84555714Y-53236333D02*
X84508095Y-53379190D01*
X84508095Y-53379190D02*
X83936667Y-53950619D01*
X83936667Y-53950619D02*
X84555714Y-53950619D01*
%TO.C,D4*%
X63751905Y-47672619D02*
X63751905Y-46672619D01*
X63751905Y-46672619D02*
X63990000Y-46672619D01*
X63990000Y-46672619D02*
X64132857Y-46720238D01*
X64132857Y-46720238D02*
X64228095Y-46815476D01*
X64228095Y-46815476D02*
X64275714Y-46910714D01*
X64275714Y-46910714D02*
X64323333Y-47101190D01*
X64323333Y-47101190D02*
X64323333Y-47244047D01*
X64323333Y-47244047D02*
X64275714Y-47434523D01*
X64275714Y-47434523D02*
X64228095Y-47529761D01*
X64228095Y-47529761D02*
X64132857Y-47625000D01*
X64132857Y-47625000D02*
X63990000Y-47672619D01*
X63990000Y-47672619D02*
X63751905Y-47672619D01*
X65180476Y-47005952D02*
X65180476Y-47672619D01*
X64942381Y-46625000D02*
X64704286Y-47339285D01*
X64704286Y-47339285D02*
X65323333Y-47339285D01*
%TO.C,R8*%
X76663333Y-36202619D02*
X76330000Y-35726428D01*
X76091905Y-36202619D02*
X76091905Y-35202619D01*
X76091905Y-35202619D02*
X76472857Y-35202619D01*
X76472857Y-35202619D02*
X76568095Y-35250238D01*
X76568095Y-35250238D02*
X76615714Y-35297857D01*
X76615714Y-35297857D02*
X76663333Y-35393095D01*
X76663333Y-35393095D02*
X76663333Y-35535952D01*
X76663333Y-35535952D02*
X76615714Y-35631190D01*
X76615714Y-35631190D02*
X76568095Y-35678809D01*
X76568095Y-35678809D02*
X76472857Y-35726428D01*
X76472857Y-35726428D02*
X76091905Y-35726428D01*
X77234762Y-35631190D02*
X77139524Y-35583571D01*
X77139524Y-35583571D02*
X77091905Y-35535952D01*
X77091905Y-35535952D02*
X77044286Y-35440714D01*
X77044286Y-35440714D02*
X77044286Y-35393095D01*
X77044286Y-35393095D02*
X77091905Y-35297857D01*
X77091905Y-35297857D02*
X77139524Y-35250238D01*
X77139524Y-35250238D02*
X77234762Y-35202619D01*
X77234762Y-35202619D02*
X77425238Y-35202619D01*
X77425238Y-35202619D02*
X77520476Y-35250238D01*
X77520476Y-35250238D02*
X77568095Y-35297857D01*
X77568095Y-35297857D02*
X77615714Y-35393095D01*
X77615714Y-35393095D02*
X77615714Y-35440714D01*
X77615714Y-35440714D02*
X77568095Y-35535952D01*
X77568095Y-35535952D02*
X77520476Y-35583571D01*
X77520476Y-35583571D02*
X77425238Y-35631190D01*
X77425238Y-35631190D02*
X77234762Y-35631190D01*
X77234762Y-35631190D02*
X77139524Y-35678809D01*
X77139524Y-35678809D02*
X77091905Y-35726428D01*
X77091905Y-35726428D02*
X77044286Y-35821666D01*
X77044286Y-35821666D02*
X77044286Y-36012142D01*
X77044286Y-36012142D02*
X77091905Y-36107380D01*
X77091905Y-36107380D02*
X77139524Y-36155000D01*
X77139524Y-36155000D02*
X77234762Y-36202619D01*
X77234762Y-36202619D02*
X77425238Y-36202619D01*
X77425238Y-36202619D02*
X77520476Y-36155000D01*
X77520476Y-36155000D02*
X77568095Y-36107380D01*
X77568095Y-36107380D02*
X77615714Y-36012142D01*
X77615714Y-36012142D02*
X77615714Y-35821666D01*
X77615714Y-35821666D02*
X77568095Y-35726428D01*
X77568095Y-35726428D02*
X77520476Y-35678809D01*
X77520476Y-35678809D02*
X77425238Y-35631190D01*
%TO.C,R4*%
X83623333Y-47786619D02*
X83290000Y-47310428D01*
X83051905Y-47786619D02*
X83051905Y-46786619D01*
X83051905Y-46786619D02*
X83432857Y-46786619D01*
X83432857Y-46786619D02*
X83528095Y-46834238D01*
X83528095Y-46834238D02*
X83575714Y-46881857D01*
X83575714Y-46881857D02*
X83623333Y-46977095D01*
X83623333Y-46977095D02*
X83623333Y-47119952D01*
X83623333Y-47119952D02*
X83575714Y-47215190D01*
X83575714Y-47215190D02*
X83528095Y-47262809D01*
X83528095Y-47262809D02*
X83432857Y-47310428D01*
X83432857Y-47310428D02*
X83051905Y-47310428D01*
X84480476Y-47119952D02*
X84480476Y-47786619D01*
X84242381Y-46739000D02*
X84004286Y-47453285D01*
X84004286Y-47453285D02*
X84623333Y-47453285D01*
%TO.C,R11*%
X63627142Y-25912619D02*
X63293809Y-25436428D01*
X63055714Y-25912619D02*
X63055714Y-24912619D01*
X63055714Y-24912619D02*
X63436666Y-24912619D01*
X63436666Y-24912619D02*
X63531904Y-24960238D01*
X63531904Y-24960238D02*
X63579523Y-25007857D01*
X63579523Y-25007857D02*
X63627142Y-25103095D01*
X63627142Y-25103095D02*
X63627142Y-25245952D01*
X63627142Y-25245952D02*
X63579523Y-25341190D01*
X63579523Y-25341190D02*
X63531904Y-25388809D01*
X63531904Y-25388809D02*
X63436666Y-25436428D01*
X63436666Y-25436428D02*
X63055714Y-25436428D01*
X64579523Y-25912619D02*
X64008095Y-25912619D01*
X64293809Y-25912619D02*
X64293809Y-24912619D01*
X64293809Y-24912619D02*
X64198571Y-25055476D01*
X64198571Y-25055476D02*
X64103333Y-25150714D01*
X64103333Y-25150714D02*
X64008095Y-25198333D01*
X65531904Y-25912619D02*
X64960476Y-25912619D01*
X65246190Y-25912619D02*
X65246190Y-24912619D01*
X65246190Y-24912619D02*
X65150952Y-25055476D01*
X65150952Y-25055476D02*
X65055714Y-25150714D01*
X65055714Y-25150714D02*
X64960476Y-25198333D01*
%TO.C,D2*%
X63711905Y-53972619D02*
X63711905Y-52972619D01*
X63711905Y-52972619D02*
X63950000Y-52972619D01*
X63950000Y-52972619D02*
X64092857Y-53020238D01*
X64092857Y-53020238D02*
X64188095Y-53115476D01*
X64188095Y-53115476D02*
X64235714Y-53210714D01*
X64235714Y-53210714D02*
X64283333Y-53401190D01*
X64283333Y-53401190D02*
X64283333Y-53544047D01*
X64283333Y-53544047D02*
X64235714Y-53734523D01*
X64235714Y-53734523D02*
X64188095Y-53829761D01*
X64188095Y-53829761D02*
X64092857Y-53925000D01*
X64092857Y-53925000D02*
X63950000Y-53972619D01*
X63950000Y-53972619D02*
X63711905Y-53972619D01*
X64664286Y-53067857D02*
X64711905Y-53020238D01*
X64711905Y-53020238D02*
X64807143Y-52972619D01*
X64807143Y-52972619D02*
X65045238Y-52972619D01*
X65045238Y-52972619D02*
X65140476Y-53020238D01*
X65140476Y-53020238D02*
X65188095Y-53067857D01*
X65188095Y-53067857D02*
X65235714Y-53163095D01*
X65235714Y-53163095D02*
X65235714Y-53258333D01*
X65235714Y-53258333D02*
X65188095Y-53401190D01*
X65188095Y-53401190D02*
X64616667Y-53972619D01*
X64616667Y-53972619D02*
X65235714Y-53972619D01*
%TO.C,D7*%
X62991905Y-38812619D02*
X62991905Y-37812619D01*
X62991905Y-37812619D02*
X63230000Y-37812619D01*
X63230000Y-37812619D02*
X63372857Y-37860238D01*
X63372857Y-37860238D02*
X63468095Y-37955476D01*
X63468095Y-37955476D02*
X63515714Y-38050714D01*
X63515714Y-38050714D02*
X63563333Y-38241190D01*
X63563333Y-38241190D02*
X63563333Y-38384047D01*
X63563333Y-38384047D02*
X63515714Y-38574523D01*
X63515714Y-38574523D02*
X63468095Y-38669761D01*
X63468095Y-38669761D02*
X63372857Y-38765000D01*
X63372857Y-38765000D02*
X63230000Y-38812619D01*
X63230000Y-38812619D02*
X62991905Y-38812619D01*
X63896667Y-37812619D02*
X64563333Y-37812619D01*
X64563333Y-37812619D02*
X64134762Y-38812619D01*
%TO.C,R9*%
X76663333Y-33532619D02*
X76330000Y-33056428D01*
X76091905Y-33532619D02*
X76091905Y-32532619D01*
X76091905Y-32532619D02*
X76472857Y-32532619D01*
X76472857Y-32532619D02*
X76568095Y-32580238D01*
X76568095Y-32580238D02*
X76615714Y-32627857D01*
X76615714Y-32627857D02*
X76663333Y-32723095D01*
X76663333Y-32723095D02*
X76663333Y-32865952D01*
X76663333Y-32865952D02*
X76615714Y-32961190D01*
X76615714Y-32961190D02*
X76568095Y-33008809D01*
X76568095Y-33008809D02*
X76472857Y-33056428D01*
X76472857Y-33056428D02*
X76091905Y-33056428D01*
X77139524Y-33532619D02*
X77330000Y-33532619D01*
X77330000Y-33532619D02*
X77425238Y-33485000D01*
X77425238Y-33485000D02*
X77472857Y-33437380D01*
X77472857Y-33437380D02*
X77568095Y-33294523D01*
X77568095Y-33294523D02*
X77615714Y-33104047D01*
X77615714Y-33104047D02*
X77615714Y-32723095D01*
X77615714Y-32723095D02*
X77568095Y-32627857D01*
X77568095Y-32627857D02*
X77520476Y-32580238D01*
X77520476Y-32580238D02*
X77425238Y-32532619D01*
X77425238Y-32532619D02*
X77234762Y-32532619D01*
X77234762Y-32532619D02*
X77139524Y-32580238D01*
X77139524Y-32580238D02*
X77091905Y-32627857D01*
X77091905Y-32627857D02*
X77044286Y-32723095D01*
X77044286Y-32723095D02*
X77044286Y-32961190D01*
X77044286Y-32961190D02*
X77091905Y-33056428D01*
X77091905Y-33056428D02*
X77139524Y-33104047D01*
X77139524Y-33104047D02*
X77234762Y-33151666D01*
X77234762Y-33151666D02*
X77425238Y-33151666D01*
X77425238Y-33151666D02*
X77520476Y-33104047D01*
X77520476Y-33104047D02*
X77568095Y-33056428D01*
X77568095Y-33056428D02*
X77615714Y-32961190D01*
%TO.C,D8*%
X62941905Y-36162619D02*
X62941905Y-35162619D01*
X62941905Y-35162619D02*
X63180000Y-35162619D01*
X63180000Y-35162619D02*
X63322857Y-35210238D01*
X63322857Y-35210238D02*
X63418095Y-35305476D01*
X63418095Y-35305476D02*
X63465714Y-35400714D01*
X63465714Y-35400714D02*
X63513333Y-35591190D01*
X63513333Y-35591190D02*
X63513333Y-35734047D01*
X63513333Y-35734047D02*
X63465714Y-35924523D01*
X63465714Y-35924523D02*
X63418095Y-36019761D01*
X63418095Y-36019761D02*
X63322857Y-36115000D01*
X63322857Y-36115000D02*
X63180000Y-36162619D01*
X63180000Y-36162619D02*
X62941905Y-36162619D01*
X64084762Y-35591190D02*
X63989524Y-35543571D01*
X63989524Y-35543571D02*
X63941905Y-35495952D01*
X63941905Y-35495952D02*
X63894286Y-35400714D01*
X63894286Y-35400714D02*
X63894286Y-35353095D01*
X63894286Y-35353095D02*
X63941905Y-35257857D01*
X63941905Y-35257857D02*
X63989524Y-35210238D01*
X63989524Y-35210238D02*
X64084762Y-35162619D01*
X64084762Y-35162619D02*
X64275238Y-35162619D01*
X64275238Y-35162619D02*
X64370476Y-35210238D01*
X64370476Y-35210238D02*
X64418095Y-35257857D01*
X64418095Y-35257857D02*
X64465714Y-35353095D01*
X64465714Y-35353095D02*
X64465714Y-35400714D01*
X64465714Y-35400714D02*
X64418095Y-35495952D01*
X64418095Y-35495952D02*
X64370476Y-35543571D01*
X64370476Y-35543571D02*
X64275238Y-35591190D01*
X64275238Y-35591190D02*
X64084762Y-35591190D01*
X64084762Y-35591190D02*
X63989524Y-35638809D01*
X63989524Y-35638809D02*
X63941905Y-35686428D01*
X63941905Y-35686428D02*
X63894286Y-35781666D01*
X63894286Y-35781666D02*
X63894286Y-35972142D01*
X63894286Y-35972142D02*
X63941905Y-36067380D01*
X63941905Y-36067380D02*
X63989524Y-36115000D01*
X63989524Y-36115000D02*
X64084762Y-36162619D01*
X64084762Y-36162619D02*
X64275238Y-36162619D01*
X64275238Y-36162619D02*
X64370476Y-36115000D01*
X64370476Y-36115000D02*
X64418095Y-36067380D01*
X64418095Y-36067380D02*
X64465714Y-35972142D01*
X64465714Y-35972142D02*
X64465714Y-35781666D01*
X64465714Y-35781666D02*
X64418095Y-35686428D01*
X64418095Y-35686428D02*
X64370476Y-35638809D01*
X64370476Y-35638809D02*
X64275238Y-35591190D01*
D11*
%TO.C,A1*%
X60700000Y-65930000D02*
X60700000Y-63260000D01*
X60700000Y-60720000D02*
X60700000Y-22490000D01*
X60700000Y-22490000D02*
X55620000Y-22490000D01*
X58030000Y-63260000D02*
X60700000Y-63260000D01*
X58030000Y-60720000D02*
X60700000Y-60720000D01*
X58030000Y-60720000D02*
X58030000Y-63260000D01*
X58030000Y-60720000D02*
X58030000Y-25160000D01*
X58030000Y-25160000D02*
X60700000Y-25160000D01*
X55620000Y-30370000D02*
X47740000Y-30370000D01*
X55620000Y-19950000D02*
X55620000Y-30370000D01*
X47740000Y-30370000D02*
X47740000Y-19950000D01*
X47740000Y-19950000D02*
X55620000Y-19950000D01*
X45330000Y-63260000D02*
X45330000Y-25160000D01*
X45330000Y-63260000D02*
X42660000Y-63260000D01*
X45330000Y-25160000D02*
X42660000Y-25160000D01*
X42660000Y-65930000D02*
X60700000Y-65930000D01*
X42660000Y-22490000D02*
X47740000Y-22490000D01*
X42660000Y-22490000D02*
X42660000Y-65930000D01*
%TO.C,R6*%
X74057064Y-42060000D02*
X72602936Y-42060000D01*
X74057064Y-40240000D02*
X72602936Y-40240000D01*
%TO.C,D9*%
X69790000Y-34185000D02*
X69790000Y-31915000D01*
X69790000Y-31915000D02*
X65730000Y-31915000D01*
X65730000Y-34185000D02*
X69790000Y-34185000D01*
%TO.C,R14*%
X66802936Y-63940000D02*
X68257064Y-63940000D01*
X66802936Y-65760000D02*
X68257064Y-65760000D01*
%TO.C,R13*%
X68257064Y-61660000D02*
X66802936Y-61660000D01*
X68257064Y-59840000D02*
X66802936Y-59840000D01*
%TO.C,D6*%
X69790000Y-42285000D02*
X69790000Y-40015000D01*
X69790000Y-40015000D02*
X65730000Y-40015000D01*
X65730000Y-42285000D02*
X69790000Y-42285000D01*
D12*
%TO.C,BT1*%
X67880800Y-79482400D02*
X66880800Y-79482400D01*
X67380800Y-79982400D02*
X67380800Y-78982400D01*
X62125000Y-80545000D02*
X49675000Y-80545000D01*
X49675000Y-66955000D02*
X62125000Y-66955000D01*
X44589000Y-79439600D02*
X43589000Y-79439600D01*
X62125000Y-80545000D02*
G75*
G03*
X68920000Y-73750000I1J6794999D01*
G01*
X68920000Y-73750000D02*
G75*
G03*
X62125000Y-66955000I-6794999J1D01*
G01*
X42880000Y-73750000D02*
G75*
G03*
X49675000Y-80545000I6795000J0D01*
G01*
X49675000Y-66955000D02*
G75*
G03*
X42880000Y-73750000I0J-6795000D01*
G01*
D11*
%TO.C,R7*%
X74057064Y-39360000D02*
X72602936Y-39360000D01*
X74057064Y-37540000D02*
X72602936Y-37540000D01*
%TO.C,R8*%
X74057064Y-36660000D02*
X72602936Y-36660000D01*
X74057064Y-34840000D02*
X72602936Y-34840000D01*
%TO.C,D7*%
X69790000Y-39585000D02*
X69790000Y-37315000D01*
X69790000Y-37315000D02*
X65730000Y-37315000D01*
X65730000Y-39585000D02*
X69790000Y-39585000D01*
%TO.C,R9*%
X74057064Y-33960000D02*
X72602936Y-33960000D01*
X74057064Y-32140000D02*
X72602936Y-32140000D01*
%TO.C,D8*%
X69790000Y-36885000D02*
X69790000Y-34615000D01*
X69790000Y-34615000D02*
X65730000Y-34615000D01*
X65730000Y-36885000D02*
X69790000Y-36885000D01*
%TD*%
M02*
